<svg width="16" height="29" viewBox="0 0 16 29" fill="none" xmlns="http://www.w3.org/2000/svg">
<path d="M10.666 0.182566C10.2538 0.103517 9.83408 0.043289 9.4106 0V9.53863V18.4354C9.40684 20.4249 7.79385 22.036 5.80256 22.036C5.64258 22.036 5.48637 22.0247 5.33203 22.0058V23.7675C8.27756 23.7675 10.6641 21.3791 10.6641 18.4354V9.53863V0.182566H10.666Z" fill="#333333"/>
<path d="M2.19644 18.4354V9.45951V7.07861C1.35137 7.743 0.624868 8.54856 0.0489372 9.45951H0V18.4354C0 20.948 1.73721 23.0541 4.07669 23.6188V21.5974C2.95682 20.9857 2.19833 19.7999 2.19456 18.4354H2.19644Z" fill="#333333"/>
<path d="M5.33398 28.0215C5.74617 28.1005 6.16589 28.1608 6.58937 28.204V18.6654V9.76859C6.59313 7.77918 8.20611 6.16808 10.1974 6.16808C10.3574 6.16808 10.5136 6.17937 10.6679 6.1982V4.43652C7.72241 4.43652 5.33587 6.82494 5.33587 9.76859V18.6654V28.0215H5.33398Z" fill="#333333"/>
<path d="M13.8036 9.76834V18.7442V21.1251C14.6487 20.4607 15.3752 19.6552 15.9511 18.7442H16V9.76834C16 7.2557 14.2628 5.1496 11.9233 4.58496V6.60637C13.0432 7.21806 13.8017 8.4038 13.8055 9.76834H13.8036Z" fill="#333333"/>
</svg>
