<svg width="134" height="146" viewBox="0 0 134 146" fill="none" xmlns="http://www.w3.org/2000/svg">
<path d="M19.909 45.6305L19.9092 45.6302C23.6247 36.7136 33.7305 25.3812 44.7093 17.8477C50.1936 14.0845 55.8574 11.2964 61.0089 10.2222C66.156 9.14893 70.7282 9.79563 74.1405 12.805C84.114 21.6025 95.0912 25.1218 104.345 28.0886C105.94 28.5999 107.483 29.0948 108.962 29.5975C114.013 31.3148 118.266 33.1083 121.293 35.9047C124.291 38.6748 126.124 42.4675 126.244 48.2847C126.386 55.1578 124.093 62.998 120.095 71.1607C116.099 79.3175 110.417 87.7623 103.824 95.8339C90.7767 111.806 74.2034 126.266 60.171 134.113C55.2865 123.967 46.8903 114.8 36.6396 109.897C33.6585 93.1243 25.2804 74.0797 15.5093 58.1022C16.7398 53.8655 18.2087 49.7016 19.909 45.6305Z" fill="url(#paint0_linear_511_127)" stroke="#FBF7F7"/>
<path d="M59.729 49.8713L63.5325 50.7864L60.7815 62.2201L63.3016 62.8265L62.8637 64.6465L60.3436 64.0402L59.6025 67.1203L57.6424 66.6487L58.3835 63.5686L50.8233 61.7496L51.4745 59.0428L59.729 49.8713ZM53.0086 60.0537L52.9412 60.3337L58.8214 61.7485L61.3703 51.1549L61.0903 51.0875L53.0086 60.0537ZM49.3918 82.3094C48.8499 82.179 48.3967 81.9253 48.0321 81.5483C47.6725 81.1726 47.4391 80.7066 47.3319 80.1504C47.306 80.3692 47.2706 80.583 47.2257 80.7918C47.1859 81.0019 47.1276 81.2664 47.0509 81.5855L45.8735 81.3022L48.3115 71.1695L49.5268 71.4619L48.7848 74.5458C48.7154 74.8344 48.6524 75.0737 48.596 75.2637C48.5447 75.4549 48.4781 75.6425 48.3964 75.8264C48.7616 75.4214 49.1843 75.1454 49.6643 74.9984C50.1455 74.8464 50.6444 74.8325 51.1609 74.9567C51.7938 75.109 52.3092 75.3937 52.7071 75.8109C53.1061 76.223 53.3652 76.738 53.4844 77.3559C53.6099 77.97 53.5836 78.6467 53.4058 79.386C53.2279 80.1253 52.9428 80.7424 52.5505 81.2373C52.1645 81.7284 51.6995 82.0691 51.1555 82.2597C50.6127 82.4451 50.0248 82.4617 49.3918 82.3094ZM47.9368 78.0702C47.8052 78.6171 47.7774 79.1113 47.8533 79.5527C47.9343 79.9954 48.1062 80.3609 48.369 80.6491C48.6381 80.9334 48.9827 81.1262 49.403 81.2273C49.8233 81.3285 50.218 81.3136 50.5869 81.1827C50.9571 81.0468 51.2764 80.7995 51.5449 80.4409C51.8183 80.0835 52.0209 79.6314 52.1525 79.0845C52.2828 78.5426 52.3094 78.0535 52.2323 77.6171C52.1564 77.1757 51.9845 76.8102 51.7167 76.5208C51.45 76.2263 51.104 76.0278 50.6787 75.9255C50.2533 75.8232 49.8549 75.8425 49.4835 75.9835C49.1184 76.1206 48.8016 76.3685 48.5332 76.7271C48.2648 77.0857 48.066 77.5334 47.9368 78.0702ZM57.3825 84.232C56.6989 84.0675 56.1404 83.7724 55.7071 83.3468C55.2789 82.9223 54.9976 82.3993 54.8633 81.7777C54.7289 81.1561 54.7495 80.4807 54.9249 79.7515C55.1028 79.0122 55.3923 78.3989 55.7935 77.9115C56.201 77.4203 56.6913 77.0856 57.2645 76.9074C57.8389 76.7242 58.468 76.7149 59.1516 76.8793C59.8352 77.0438 60.3911 77.3383 60.8193 77.7627C61.2538 78.1833 61.5382 78.7044 61.6726 79.326C61.8082 79.9426 61.787 80.6205 61.6092 81.3598C61.4337 82.089 61.1448 82.6998 60.7424 83.1923C60.34 83.6847 59.849 84.0219 59.2695 84.2039C58.6951 84.3871 58.0661 84.3965 57.3825 84.232ZM56.1782 80.0531C56.043 80.6152 56.0102 81.1189 56.0798 81.5642C56.1494 82.0095 56.3156 82.3763 56.5784 82.6645C56.8424 82.9476 57.1896 83.141 57.6201 83.2446C58.2784 83.4029 58.8465 83.2905 59.3244 82.9073C59.8073 82.5253 60.1512 81.909 60.3559 81.0582C60.5581 80.2177 60.5342 79.5155 60.2841 78.9518C60.0341 78.388 59.5773 78.0264 58.914 77.8668C58.2506 77.7072 57.6794 77.8215 57.2003 78.2098C56.7211 78.5981 56.3805 79.2125 56.1782 80.0531ZM65.5859 86.2058C64.9023 86.0413 64.3438 85.7462 63.9105 85.3205C63.4823 84.8961 63.201 84.3731 63.0667 83.7515C62.9323 83.1299 62.9529 82.4545 63.1283 81.7253C63.3062 80.986 63.5957 80.3726 63.9969 79.8853C64.4044 79.394 64.8947 79.0593 65.4679 78.8812C66.0423 78.698 66.6713 78.6886 67.355 78.8531C68.0386 79.0176 68.5945 79.312 69.0227 79.7365C69.4572 80.1571 69.7416 80.6782 69.876 81.2998C70.0116 81.9163 69.9904 82.5942 69.8125 83.3336C69.6371 84.0628 69.3482 84.6736 68.9458 85.166C68.5434 85.6585 68.0524 85.9957 67.4729 86.1777C66.8985 86.3609 66.2695 86.3703 65.5859 86.2058ZM64.3816 82.0269C64.2464 82.5889 64.2136 83.0926 64.2832 83.538C64.3528 83.9833 64.519 84.35 64.7818 84.6382C65.0458 84.9214 65.393 85.1148 65.8235 85.2183C66.4818 85.3767 67.0499 85.2643 67.5278 84.8811C68.0107 84.4991 68.3546 83.8827 68.5592 83.032C68.7615 82.1914 68.7376 81.4893 68.4875 80.9255C68.2375 80.3618 67.7807 80.0002 67.1174 79.8405C66.454 79.6809 65.8828 79.7953 65.4037 80.1836C64.9245 80.5718 64.5838 81.1863 64.3816 82.0269ZM73.0736 77.1273L74.2889 77.4198L72.7446 83.8381L76.8055 81.2876L78.3474 81.6586L74.8043 83.8275L76.8261 88.7495L75.383 88.4023L73.7784 84.3842L72.4047 85.251L71.8509 87.5525L70.6356 87.26L73.0736 77.1273ZM80.276 89.7403C79.7139 89.605 79.2313 89.3845 78.8282 89.0785C78.425 88.7726 78.135 88.4082 77.9582 87.9853C77.7814 87.5624 77.7357 87.1175 77.8213 86.6506L79.0133 86.8731C78.9576 87.149 78.9821 87.4147 79.0866 87.6702C79.1963 87.927 79.3726 88.1515 79.6156 88.3439C79.8598 88.5312 80.1591 88.6675 80.5136 88.7528C80.8478 88.8332 81.1467 88.8489 81.4103 88.7998C81.679 88.752 81.8991 88.6496 82.0708 88.4927C82.2425 88.3358 82.3563 88.1409 82.4124 87.9079C82.4757 87.6446 82.4372 87.4264 82.2967 87.2533C82.1612 87.0815 81.9134 86.9093 81.5531 86.7369L80.3638 86.1695C79.7536 85.8781 79.3249 85.5446 79.0777 85.1691C78.8306 84.7935 78.771 84.3399 78.8989 83.8082C78.9964 83.4031 79.1937 83.0729 79.4908 82.8176C79.7892 82.5573 80.154 82.3879 80.5854 82.3096C81.0167 82.2312 81.478 82.2512 81.9692 82.3693C82.4553 82.4863 82.8763 82.6733 83.2323 82.9304C83.5883 83.1875 83.8507 83.4997 84.0194 83.8671C84.1945 84.2306 84.2548 84.6255 84.2005 85.0517L82.9997 84.8993C83.0568 84.506 82.9724 84.1776 82.7465 83.9144C82.5256 83.6523 82.1873 83.4664 81.7316 83.3568C81.3062 83.2544 80.945 83.264 80.648 83.3853C80.3521 83.5016 80.1689 83.7067 80.0982 84.0004C80.0348 84.2637 80.0734 84.4819 80.2139 84.655C80.3544 84.828 80.5927 84.9952 80.9289 85.1565L82.2972 85.8151C82.8491 86.0818 83.2447 86.3967 83.4842 86.7596C83.7236 87.1226 83.7794 87.5699 83.6515 88.1016C83.5455 88.5422 83.3283 88.9104 82.9999 89.2064C82.6779 89.4986 82.2772 89.6941 81.7981 89.7931C81.3252 89.8883 80.8179 89.8706 80.276 89.7403Z" fill="#333333"/>
<defs>
<linearGradient id="paint0_linear_511_127" x1="116.495" y1="81.2174" x2="-22.1601" y2="91.2998" gradientUnits="userSpaceOnUse">
<stop stop-color="#EFDBE3"/>
<stop offset="0.42" stop-color="#EFDFDE"/>
</linearGradient>
</defs>
</svg>
