<svg width="145" height="151" viewBox="0 0 145 151" fill="none" xmlns="http://www.w3.org/2000/svg">
<path fill-rule="evenodd" clip-rule="evenodd" d="M22.4834 59.8199C34.5966 77.8522 45.1885 100.63 48.8656 120.464C62.6003 121.285 74.3148 128.442 76.951 142.064C103.184 122.824 137.119 78.2527 134.39 50.6083C131.996 26.3562 102.651 36.7082 77.6459 17.8945C62.4974 6.49479 29.8048 35.1112 22.4834 59.8199Z" fill="url(#paint0_radial_511_139)"/>
<path d="M71.3037 70.087L70.4887 71.7722L60.2474 66.8194L61.5013 64.2267C61.8357 63.5353 62.24 62.9932 62.7143 62.6006C63.1955 62.1935 63.7321 61.9109 64.324 61.7528C64.9372 61.5873 65.6055 61.5284 66.3289 61.5761C67.0523 61.6238 67.8375 61.7458 68.6845 61.9422C70.1058 62.2741 71.2261 62.3094 72.0456 62.0481C72.8795 61.7938 73.4846 61.2777 73.8607 60.4999L73.9234 60.3703C74.1115 59.9814 74.2313 59.5683 74.2828 59.1311C74.3343 58.6939 74.2963 58.2579 74.1689 57.8231C74.0415 57.3882 73.8036 56.9799 73.4551 56.5981C73.1279 56.2088 72.669 55.8714 72.0785 55.5858C70.9694 55.0494 69.9414 54.9699 68.9947 55.3474C68.0623 55.7318 67.3244 56.4857 66.7811 57.6092L66.3213 58.5599L64.5064 57.6822L65.0289 56.6019C65.3632 55.9105 65.7989 55.3036 66.3359 54.7813C66.8728 54.259 67.483 53.861 68.1664 53.5872C68.8498 53.3134 69.5924 53.1927 70.3943 53.225C71.1962 53.2574 72.0293 53.4825 72.8935 53.9005C73.7721 54.3254 74.4694 54.8315 74.9852 55.4186C75.508 55.9914 75.8775 56.6055 76.0936 57.261C76.3168 57.9021 76.3933 58.5523 76.3233 59.2116C76.2747 59.8634 76.111 60.4774 75.8324 61.0536L75.6443 61.4425C75.087 62.5948 74.2497 63.4073 73.1325 63.88C72.0222 64.3383 70.5912 64.3572 68.8396 63.9367C67.3105 63.5704 66.1 63.4826 65.208 63.6733C64.323 63.8495 63.6506 64.413 63.1908 65.3637L62.8774 66.0118L71.3037 70.087ZM77.733 63.8656C78.6804 61.9066 79.8834 60.6134 81.3421 59.9859C82.8009 59.3584 84.3656 59.4487 86.0365 60.2567C87.7074 61.0648 88.7497 62.2354 89.1635 63.7685C89.5773 65.3015 89.3105 67.0476 88.3631 69.0065L86.7331 72.377C85.7578 74.3936 84.5478 75.7012 83.103 76.2999C81.6583 76.8986 80.1004 76.7939 78.4296 75.9859C76.7587 75.1778 75.7094 74.0216 75.2817 72.5173C74.8539 71.0131 75.1277 69.2526 76.1029 67.2361L77.733 63.8656ZM79.2237 74.3438C80.3904 74.9081 81.4569 74.9262 82.4232 74.3982C83.4108 73.8628 84.2634 72.8533 84.9809 71.3697L86.4855 68.2584C86.8199 67.567 87.0509 66.9056 87.1785 66.2742C87.3131 65.6284 87.3267 65.0307 87.2193 64.4811C87.1332 63.924 86.9227 63.4223 86.5876 62.9759C86.2669 62.5365 85.8185 62.1774 85.2424 61.8988C84.6518 61.6132 84.0847 61.4811 83.5412 61.5026C82.9976 61.5241 82.4736 61.6705 81.9691 61.942C81.4859 62.2059 81.033 62.5912 80.6103 63.0977C80.1946 63.5898 79.8196 64.1815 79.4852 64.8729L77.9805 67.9842C77.263 69.4678 76.9938 70.7594 77.1729 71.8591C77.3734 72.9513 78.057 73.7796 79.2237 74.3438ZM80.8503 67.4526C81.0314 67.078 81.3249 66.8201 81.731 66.6788C82.137 66.5375 82.5273 66.5574 82.9018 66.7385C83.2763 66.9196 83.5342 67.2132 83.6755 67.6192C83.8168 68.0253 83.7969 68.4155 83.6158 68.79C83.4347 69.1645 83.1411 69.4224 82.7351 69.5638C82.3291 69.7051 81.9388 69.6852 81.5643 69.5041C81.1898 69.323 80.9319 69.0294 80.7906 68.6234C80.6492 68.2173 80.6691 67.8271 80.8503 67.4526ZM91.323 71.5576L95.0608 73.3653L96.8685 69.6275L98.4241 70.3798L96.6164 74.1177L100.354 75.9254L99.6019 77.481L95.8641 75.6733L94.0564 79.4111L92.5008 78.6588L94.3085 74.921L90.5706 73.1133L91.323 71.5576ZM55.0494 83.3628C54.4399 83.068 53.9687 82.6665 53.6359 82.1584C53.31 81.6479 53.1417 81.0748 53.131 80.439C53.1272 79.8008 53.2886 79.1441 53.6152 78.4689C53.944 77.789 54.3597 77.2524 54.8623 76.8591C55.3696 76.4681 55.9223 76.2465 56.5202 76.1943C57.1252 76.1397 57.7324 76.2598 58.342 76.5546C59.0687 76.9061 59.591 77.3872 59.9089 77.998C60.2337 78.6064 60.3372 79.2957 60.2192 80.066L58.9585 79.8555C59.0723 79.2972 59.0392 78.8155 58.8591 78.4102C58.6838 78.0072 58.364 77.6934 57.8998 77.4689C57.5153 77.283 57.129 77.2205 56.7407 77.2816C56.3548 77.3379 55.9914 77.5151 55.6506 77.8131C55.3145 78.1134 55.0228 78.519 54.7756 79.0301C54.5262 79.5459 54.3905 80.0299 54.3685 80.4821C54.3512 80.9365 54.4379 81.3314 54.6287 81.6667C54.8242 82.0042 55.1118 82.2648 55.4916 82.4484C55.9652 82.6775 56.4236 82.7285 56.8668 82.6015C57.3101 82.4745 57.7208 82.1756 58.0989 81.7047L59.095 82.5162C58.5511 83.1384 57.9296 83.5263 57.2305 83.6799C56.5313 83.8336 55.8043 83.7278 55.0494 83.3628ZM64.0436 75.9623L65.1689 76.5065L64.3866 78.1242L63.2613 77.5799L64.0436 75.9623ZM62.6626 78.8178L63.788 79.362L60.6315 85.8888L59.5062 85.3446L62.6626 78.8178ZM64.6064 87.8979C64.0484 87.6281 63.6851 87.2846 63.5166 86.8675C63.3503 86.4458 63.3975 85.9653 63.6583 85.4261L65.6175 81.375L64.4359 80.8035L64.8781 79.8892L66.0597 80.4606L66.978 78.5617L68.1034 79.1059L67.185 81.0049L68.5776 81.6783L68.1354 82.5927L66.7428 81.9192L64.8788 85.7734C64.7382 86.0641 64.703 86.3045 64.773 86.4946C64.8454 86.68 65.0269 86.843 65.3176 86.9835C65.4864 87.0652 65.6819 87.1395 65.9041 87.2064L65.4211 88.2051C65.1311 88.1228 64.8596 88.0204 64.6064 87.8979ZM71.3722 79.5065L72.4975 80.0508L71.7152 81.6684L70.5899 81.1242L71.3722 79.5065ZM69.9912 82.362L71.1165 82.9062L67.96 89.433L66.8347 88.8888L69.9912 82.362ZM72.4847 91.7948C71.8705 91.4978 71.4016 91.0975 71.0782 90.5939C70.757 90.0857 70.5957 89.5159 70.5944 88.8846C70.5953 88.2487 70.7591 87.5931 71.0856 86.9179C71.4167 86.2334 71.83 85.6957 72.3257 85.3048C72.8283 84.9114 73.3739 84.6864 73.9625 84.6298C74.5581 84.5707 75.1583 84.6874 75.7632 84.9799C76.368 85.2724 76.8251 85.667 77.1345 86.1638C77.4462 86.6558 77.5945 87.2165 77.5795 87.8456C77.5715 88.4723 77.4019 89.128 77.0708 89.8125L76.9824 89.9954L72.1295 87.6484C71.917 88.1358 71.8088 88.5926 71.8051 89.0189C71.8014 89.4453 71.896 89.8179 72.0889 90.1368C72.2818 90.4557 72.5611 90.7036 72.9269 90.8805C73.3113 91.0664 73.6988 91.1266 74.0893 91.0608C74.4867 90.9927 74.8592 90.7968 75.2067 90.4731L76.1331 91.3029C75.615 91.764 75.0387 92.0407 74.4039 92.1329C73.7715 92.2204 73.1317 92.1077 72.4847 91.7948ZM76.2299 88.5727C76.4266 87.9505 76.4463 87.4075 76.2887 86.9437C76.1359 86.4821 75.8133 86.1323 75.321 85.8942C74.8287 85.6561 74.3413 85.6171 73.8589 85.7772C73.3834 85.9349 72.9594 86.2794 72.5867 86.8108L76.2299 88.5727ZM79.4264 95.152C78.906 94.9003 78.4813 94.5821 78.1525 94.1974C77.8236 93.8127 77.6177 93.395 77.5349 92.9442C77.4521 92.4933 77.5022 92.0489 77.6851 91.6109L78.8024 92.0819C78.6893 92.3396 78.6567 92.6044 78.7046 92.8763C78.7571 93.1505 78.8816 93.4074 79.0781 93.6471C79.2769 93.8821 79.5404 94.0789 79.8686 94.2377C80.1781 94.3873 80.4668 94.4662 80.7348 94.4743C81.0075 94.4847 81.2444 94.4315 81.4455 94.3147C81.6466 94.1979 81.7993 94.0317 81.9036 93.816C82.0216 93.5722 82.0303 93.3508 81.9298 93.1518C81.8341 92.955 81.6285 92.7341 81.3131 92.489L80.2717 91.6816C79.7374 91.267 79.3895 90.85 79.2279 90.4305C79.0663 90.011 79.1045 89.5551 79.3426 89.0628C79.524 88.6877 79.7871 88.407 80.1317 88.2208C80.4786 88.0298 80.8711 87.9419 81.3092 87.9571C81.7474 87.9723 82.1938 88.0899 82.6487 88.3098C83.0988 88.5275 83.4704 88.7998 83.7636 89.1268C84.0567 89.4537 84.2467 89.8146 84.3334 90.2094C84.4271 90.6019 84.4021 91.0005 84.2584 91.4054L83.1174 91.0012C83.2569 90.6289 83.2443 90.2902 83.0796 89.9849C82.9195 89.6818 82.6285 89.4282 82.2065 89.2242C81.8126 89.0337 81.4576 88.9662 81.1416 89.0216C80.8278 89.0723 80.6051 89.2336 80.4736 89.5056C80.3557 89.7494 80.3469 89.9708 80.4474 90.1698C80.5479 90.3688 80.7452 90.5829 81.0394 90.8119L82.2362 91.7466C82.7188 92.1245 83.0384 92.5163 83.1952 92.9219C83.3519 93.3275 83.3113 93.7765 83.0732 94.2688C82.8759 94.6767 82.5854 94.9904 82.2016 95.2097C81.8247 95.4267 81.3917 95.5326 80.9024 95.5274C80.4201 95.5197 79.9281 95.3946 79.4264 95.152Z" fill="#333333"/>
<defs>
<radialGradient id="paint0_radial_511_139" cx="0" cy="0" r="1" gradientUnits="userSpaceOnUse" gradientTransform="translate(69.7645 30.5904) rotate(125.04) scale(89.1755 89.4094)">
<stop offset="0.285" stop-color="#F2ECED"/>
<stop offset="1" stop-color="#E9D0D9"/>
</radialGradient>
</defs>
</svg>
