<svg width="125" height="128" viewBox="0 0 125 128" fill="none" xmlns="http://www.w3.org/2000/svg">
<path fill-rule="evenodd" clip-rule="evenodd" d="M124.074 32.3673C108.356 38.5144 95.8144 37.1213 85.2323 19.9013C81.478 13.9463 79.5107 7.03941 79.5636 0C48.6103 12.4157 3.61738 49.8056 0.185117 78.2204C-2.70168 102.099 28.8391 99.5147 48.4382 122.504C61.2442 137.505 99.2508 114.091 109.556 96.7412C121.54 76.563 127.179 54.5386 124.053 32.3589" fill="url(#paint0_radial_511_145)"/>
<path d="M35.056 50.199H38.968V61.959H41.56V63.831H38.968V66.999H36.952V63.831H29.176V61.047L35.056 50.199ZM30.904 61.671V61.959H36.952V51.063H36.664L30.904 61.671ZM32.2031 84.1553C31.526 84.1553 30.9271 83.999 30.4062 83.6865C29.8906 83.3688 29.4896 82.9261 29.2031 82.3584C28.9219 81.7855 28.7812 81.124 28.7812 80.374C28.7812 79.6188 28.9219 78.9548 29.2031 78.3818C29.4896 77.8089 29.8906 77.3688 30.4062 77.0615C30.9271 76.749 31.526 76.5928 32.2031 76.5928C33.0104 76.5928 33.6901 76.7985 34.2422 77.21C34.7995 77.6162 35.1927 78.1917 35.4219 78.9365L34.1953 79.2959C34.0547 78.7438 33.8151 78.3245 33.4766 78.0381C33.1432 77.7516 32.7188 77.6084 32.2031 77.6084C31.776 77.6084 31.401 77.7204 31.0781 77.9443C30.7552 78.1631 30.5052 78.4808 30.3281 78.8975C30.1562 79.3141 30.0703 79.8063 30.0703 80.374C30.0703 80.9469 30.1589 81.4417 30.3359 81.8584C30.5182 82.2751 30.7682 82.5928 31.0859 82.8115C31.4089 83.0303 31.7812 83.1396 32.2031 83.1396C32.7292 83.1396 33.1641 82.986 33.5078 82.6787C33.8516 82.3714 34.0911 81.9235 34.2266 81.335L35.4766 81.6318C35.2578 82.4287 34.8672 83.0485 34.3047 83.4912C33.7422 83.9339 33.0417 84.1553 32.2031 84.1553ZM40.2812 84.1553C39.5781 84.1553 38.9661 83.999 38.4453 83.6865C37.9297 83.374 37.5339 82.9313 37.2578 82.3584C36.9818 81.7855 36.8438 81.124 36.8438 80.374C36.8438 79.6136 36.9818 78.9495 37.2578 78.3818C37.5391 77.8089 37.9375 77.3688 38.4531 77.0615C38.9688 76.749 39.5781 76.5928 40.2812 76.5928C40.9844 76.5928 41.5938 76.749 42.1094 77.0615C42.6302 77.3688 43.0286 77.8089 43.3047 78.3818C43.5807 78.9495 43.7188 79.6136 43.7188 80.374C43.7188 81.124 43.5807 81.7855 43.3047 82.3584C43.0286 82.9313 42.6302 83.374 42.1094 83.6865C41.5938 83.999 40.9844 84.1553 40.2812 84.1553ZM38.1328 80.374C38.1328 80.9521 38.2188 81.4495 38.3906 81.8662C38.5625 82.2829 38.8099 82.6006 39.1328 82.8193C39.4557 83.0329 39.8385 83.1396 40.2812 83.1396C40.9583 83.1396 41.4844 82.8975 41.8594 82.4131C42.2396 81.9287 42.4297 81.249 42.4297 80.374C42.4297 79.5094 42.2422 78.8324 41.8672 78.3428C41.4922 77.8532 40.9635 77.6084 40.2812 77.6084C39.599 77.6084 39.0703 77.8532 38.6953 78.3428C38.3203 78.8324 38.1328 79.5094 38.1328 80.374ZM45.4375 76.749H46.6484C46.6484 77.0719 46.6432 77.3402 46.6328 77.5537C46.6276 77.762 46.612 77.973 46.5859 78.1865C46.8047 77.7021 47.1224 77.3167 47.5391 77.0303C47.9609 76.7386 48.4557 76.5928 49.0234 76.5928C49.513 76.5928 49.9375 76.6943 50.2969 76.8975C50.6562 77.1006 50.9323 77.3896 51.125 77.7646C51.3177 78.1344 51.4141 78.5693 51.4141 79.0693V83.999H50.1641V79.3271C50.1641 78.7803 50.0391 78.3636 49.7891 78.0771C49.5443 77.7907 49.1849 77.6475 48.7109 77.6475C48.3516 77.6475 48.0156 77.7438 47.7031 77.9365C47.3958 78.124 47.1484 78.3923 46.9609 78.7412C46.7786 79.085 46.6875 79.4808 46.6875 79.9287V83.999H45.4375V76.749ZM55.8281 84.0771C55.2083 84.0771 54.7318 83.9261 54.3984 83.624C54.0651 83.3167 53.8984 82.8636 53.8984 82.2646V77.7646H52.5859V76.749H53.8984V74.6396H55.1484V76.749H56.6953V77.7646H55.1484V82.0459C55.1484 82.3688 55.2214 82.6006 55.3672 82.7412C55.513 82.8766 55.7474 82.9443 56.0703 82.9443C56.2578 82.9443 56.4661 82.9261 56.6953 82.8896V83.999C56.3984 84.0511 56.1094 84.0771 55.8281 84.0771ZM58.2656 73.5771H59.5156V75.374H58.2656V73.5771ZM58.2656 76.749H59.5156V83.999H58.2656V76.749ZM61.3906 76.749H62.6016C62.6016 77.0719 62.5964 77.3402 62.5859 77.5537C62.5807 77.762 62.5651 77.973 62.5391 78.1865C62.7578 77.7021 63.0755 77.3167 63.4922 77.0303C63.9141 76.7386 64.4089 76.5928 64.9766 76.5928C65.4661 76.5928 65.8906 76.6943 66.25 76.8975C66.6094 77.1006 66.8854 77.3896 67.0781 77.7646C67.2708 78.1344 67.3672 78.5693 67.3672 79.0693V83.999H66.1172V79.3271C66.1172 78.7803 65.9922 78.3636 65.7422 78.0771C65.4974 77.7907 65.138 77.6475 64.6641 77.6475C64.3047 77.6475 63.9688 77.7438 63.6562 77.9365C63.349 78.124 63.1016 78.3923 62.9141 78.7412C62.7318 79.085 62.6406 79.4808 62.6406 79.9287V83.999H61.3906V76.749ZM72.4766 84.1553C71.7943 84.1553 71.1979 83.999 70.6875 83.6865C70.1771 83.3688 69.7839 82.9261 69.5078 82.3584C69.2318 81.7855 69.0938 81.124 69.0938 80.374C69.0938 79.6136 69.2318 78.9495 69.5078 78.3818C69.7891 77.8089 70.1823 77.3688 70.6875 77.0615C71.1979 76.749 71.7891 76.5928 72.4609 76.5928C73.1328 76.5928 73.7161 76.749 74.2109 77.0615C74.7057 77.3688 75.0833 77.8089 75.3438 78.3818C75.6094 78.9495 75.7422 79.6136 75.7422 80.374V80.5771H70.3516C70.3724 81.1084 70.474 81.5667 70.6562 81.9521C70.8385 82.3376 71.0859 82.6318 71.3984 82.835C71.7109 83.0381 72.0703 83.1396 72.4766 83.1396C72.9036 83.1396 73.2786 83.0251 73.6016 82.7959C73.9297 82.5615 74.1797 82.223 74.3516 81.7803L75.5469 82.124C75.2812 82.7646 74.8828 83.2646 74.3516 83.624C73.8203 83.9782 73.1953 84.1553 72.4766 84.1553ZM74.4453 79.624C74.3516 78.9782 74.1328 78.4808 73.7891 78.1318C73.4505 77.7829 73.0078 77.6084 72.4609 77.6084C71.9141 77.6084 71.4583 77.7855 71.0938 78.1396C70.7344 78.4886 70.5026 78.9834 70.3984 79.624H74.4453ZM77.4688 76.749H78.6797C78.6797 77.0719 78.6745 77.3402 78.6641 77.5537C78.6589 77.762 78.6432 77.973 78.6172 78.1865C78.8359 77.7021 79.1536 77.3167 79.5703 77.0303C79.9922 76.7386 80.487 76.5928 81.0547 76.5928C81.5443 76.5928 81.9688 76.6943 82.3281 76.8975C82.6875 77.1006 82.9635 77.3896 83.1562 77.7646C83.349 78.1344 83.4453 78.5693 83.4453 79.0693V83.999H82.1953V79.3271C82.1953 78.7803 82.0703 78.3636 81.8203 78.0771C81.5755 77.7907 81.2161 77.6475 80.7422 77.6475C80.3828 77.6475 80.0469 77.7438 79.7344 77.9365C79.4271 78.124 79.1797 78.3923 78.9922 78.7412C78.8099 79.085 78.7188 79.4808 78.7188 79.9287V83.999H77.4688V76.749ZM87.8594 84.0771C87.2396 84.0771 86.763 83.9261 86.4297 83.624C86.0964 83.3167 85.9297 82.8636 85.9297 82.2646V77.7646H84.6172V76.749H85.9297V74.6396H87.1797V76.749H88.7266V77.7646H87.1797V82.0459C87.1797 82.3688 87.2526 82.6006 87.3984 82.7412C87.5443 82.8766 87.7786 82.9443 88.1016 82.9443C88.2891 82.9443 88.4974 82.9261 88.7266 82.8896V83.999C88.4297 84.0511 88.1406 84.0771 87.8594 84.0771ZM92.8281 84.1553C92.25 84.1553 91.7292 84.0537 91.2656 83.8506C90.8021 83.6475 90.4349 83.361 90.1641 82.9912C89.8932 82.6214 89.7448 82.1995 89.7188 81.7256L90.9297 81.6631C90.9401 81.9443 91.026 82.1969 91.1875 82.4209C91.3542 82.6449 91.5781 82.8219 91.8594 82.9521C92.1406 83.0771 92.4635 83.1396 92.8281 83.1396C93.1719 83.1396 93.4661 83.085 93.7109 82.9756C93.9609 82.8662 94.151 82.7152 94.2812 82.5225C94.4115 82.3298 94.4766 82.1136 94.4766 81.874C94.4766 81.6032 94.388 81.4001 94.2109 81.2646C94.0391 81.1292 93.7578 81.0199 93.3672 80.9365L92.0781 80.6631C91.4167 80.5225 90.9219 80.2985 90.5938 79.9912C90.2656 79.6839 90.1016 79.2568 90.1016 78.71C90.1016 78.2933 90.2161 77.9261 90.4453 77.6084C90.6745 77.2855 90.9896 77.0355 91.3906 76.8584C91.7917 76.6813 92.2448 76.5928 92.75 76.5928C93.25 76.5928 93.7031 76.6761 94.1094 76.8428C94.5156 77.0094 94.8438 77.2516 95.0938 77.5693C95.349 77.8818 95.5 78.2516 95.5469 78.6787L94.3438 78.8115C94.3073 78.4157 94.1484 78.1162 93.8672 77.9131C93.5911 77.71 93.2188 77.6084 92.75 77.6084C92.3125 77.6084 91.9635 77.7021 91.7031 77.8896C91.4427 78.0719 91.3125 78.3141 91.3125 78.6162C91.3125 78.887 91.401 79.0902 91.5781 79.2256C91.7552 79.361 92.026 79.4678 92.3906 79.5459L93.875 79.8662C94.474 79.9964 94.9323 80.21 95.25 80.5068C95.5677 80.8037 95.7266 81.2256 95.7266 81.7725C95.7266 82.2256 95.6016 82.6344 95.3516 82.999C95.1068 83.3584 94.763 83.6423 94.3203 83.8506C93.8828 84.0537 93.3854 84.1553 92.8281 84.1553Z" fill="#333333"/>
<defs>
<radialGradient id="paint0_radial_511_145" cx="0" cy="0" r="1" gradientUnits="userSpaceOnUse" gradientTransform="translate(36.5595 21.0319) rotate(100.113) scale(97.7282 106.98)">
<stop stop-color="#F2ECED"/>
<stop offset="1" stop-color="#F5EFEF"/>
</radialGradient>
</defs>
</svg>
