<svg width="173" height="164" viewBox="0 0 173 164" fill="none" xmlns="http://www.w3.org/2000/svg">
<path fill-rule="evenodd" clip-rule="evenodd" d="M54.6019 0C43.5204 4.35719 17.0162 11.0717 0.671723 3.96934C-4.5585 50.0259 21.305 137.23 59.0541 158.895C91.5731 177.554 105.387 134.909 153.277 122.498C181.559 115.172 177.427 53.1226 153.551 22.4283L128.629 20.0346C102.243 16.4652 75.4966 9.61128 54.615 0" fill="url(#paint0_radial_511_119)"/>
<path d="M38.016 70.408C38.576 70.504 39.08 70.672 39.528 70.912C39.992 71.136 40.384 71.416 40.704 71.752C41.024 72.088 41.272 72.464 41.448 72.88C41.624 73.28 41.712 73.704 41.712 74.152V74.584H39.888V74.296C39.888 73.768 39.712 73.32 39.36 72.952C39.024 72.584 38.576 72.328 38.016 72.184V75.616C39.344 75.776 40.352 76.144 41.04 76.72C41.744 77.28 42.096 78.056 42.096 79.048V79.192C42.096 80.264 41.72 81.128 40.968 81.784C40.232 82.424 39.248 82.784 38.016 82.864V84.328H36.288V82.816C35.584 82.704 34.976 82.512 34.464 82.24C33.968 81.952 33.552 81.616 33.216 81.232C32.896 80.832 32.656 80.408 32.496 79.96C32.336 79.496 32.256 79.032 32.256 78.568V77.992H34.08V78.28C34.08 79.048 34.272 79.664 34.656 80.128C35.04 80.592 35.584 80.904 36.288 81.064V77.152C35.088 76.992 34.168 76.648 33.528 76.12C32.904 75.576 32.592 74.824 32.592 73.864V73.72C32.592 73.208 32.688 72.76 32.88 72.376C33.088 71.976 33.36 71.64 33.696 71.368C34.032 71.08 34.424 70.856 34.872 70.696C35.32 70.52 35.792 70.408 36.288 70.36V68.872H38.016V70.408ZM40.224 79.192C40.224 78.632 40.048 78.216 39.696 77.944C39.344 77.672 38.784 77.472 38.016 77.344V81.136C38.704 81.056 39.24 80.848 39.624 80.512C40.024 80.176 40.224 79.736 40.224 79.192ZM34.464 73.72C34.464 74.168 34.592 74.536 34.848 74.824C35.12 75.096 35.6 75.296 36.288 75.424V72.088C35.776 72.168 35.344 72.344 34.992 72.616C34.64 72.888 34.464 73.256 34.464 73.72ZM51.1513 83.128V69.088H50.8633L48.1033 75.4H46.1113V75.256L49.2553 68.2H53.1673V83.128H57.9193V85H46.3993V83.128H51.1513ZM60.8306 74.728C60.8306 72.552 61.3506 70.864 62.3906 69.664C63.4306 68.464 64.8786 67.864 66.7346 67.864C68.5906 67.864 70.0386 68.464 71.0786 69.664C72.1186 70.864 72.6386 72.552 72.6386 74.728V78.472C72.6386 80.712 72.1186 82.416 71.0786 83.584C70.0386 84.752 68.5906 85.336 66.7346 85.336C64.8786 85.336 63.4306 84.752 62.3906 83.584C61.3506 82.416 60.8306 80.712 60.8306 78.472V74.728ZM66.7346 83.512C68.0306 83.512 68.9986 83.064 69.6386 82.168C70.2946 81.256 70.6226 79.976 70.6226 78.328V74.872C70.6226 74.104 70.5426 73.408 70.3826 72.784C70.2226 72.144 69.9746 71.6 69.6386 71.152C69.3186 70.688 68.9106 70.328 68.4146 70.072C67.9346 69.816 67.3746 69.688 66.7346 69.688C66.0786 69.688 65.5106 69.816 65.0306 70.072C64.5506 70.328 64.1426 70.688 63.8066 71.152C63.4866 71.6 63.2466 72.144 63.0866 72.784C62.9266 73.408 62.8466 74.104 62.8466 74.872V78.328C62.8466 79.976 63.1666 81.256 63.8066 82.168C64.4626 83.064 65.4386 83.512 66.7346 83.512ZM65.1986 76.6C65.1986 76.184 65.3506 75.824 65.6546 75.52C65.9586 75.216 66.3186 75.064 66.7346 75.064C67.1506 75.064 67.5106 75.216 67.8146 75.52C68.1186 75.824 68.2706 76.184 68.2706 76.6C68.2706 77.016 68.1186 77.376 67.8146 77.68C67.5106 77.984 67.1506 78.136 66.7346 78.136C66.3186 78.136 65.9586 77.984 65.6546 77.68C65.3506 77.376 65.1986 77.016 65.1986 76.6ZM79.7499 83.656C79.7499 83.192 79.9099 82.8 80.2299 82.48C80.5659 82.144 80.9659 81.976 81.4299 81.976C81.8939 81.976 82.2859 82.144 82.6059 82.48C82.9419 82.8 83.1099 83.192 83.1099 83.656V86.008C83.1099 86.552 82.9339 87 82.5819 87.352C82.2459 87.704 81.8059 87.88 81.2619 87.88H80.0379V86.584H81.1659C81.5979 86.584 81.8139 86.344 81.8139 85.864V85.264C81.6859 85.312 81.5499 85.336 81.4059 85.336C80.9579 85.336 80.5659 85.176 80.2299 84.856C79.9099 84.52 79.7499 84.12 79.7499 83.656ZM90.2213 74.728C90.2213 72.552 90.7413 70.864 91.7812 69.664C92.8213 68.464 94.2693 67.864 96.1253 67.864C97.9813 67.864 99.4293 68.464 100.469 69.664C101.509 70.864 102.029 72.552 102.029 74.728V78.472C102.029 80.712 101.509 82.416 100.469 83.584C99.4293 84.752 97.9813 85.336 96.1253 85.336C94.2693 85.336 92.8213 84.752 91.7812 83.584C90.7413 82.416 90.2213 80.712 90.2213 78.472V74.728ZM96.1253 83.512C97.4213 83.512 98.3893 83.064 99.0293 82.168C99.6853 81.256 100.013 79.976 100.013 78.328V74.872C100.013 74.104 99.9333 73.408 99.7733 72.784C99.6133 72.144 99.3653 71.6 99.0293 71.152C98.7093 70.688 98.3013 70.328 97.8053 70.072C97.3253 69.816 96.7653 69.688 96.1253 69.688C95.4693 69.688 94.9013 69.816 94.4213 70.072C93.9413 70.328 93.5333 70.688 93.1973 71.152C92.8773 71.6 92.6373 72.144 92.4773 72.784C92.3173 73.408 92.2373 74.104 92.2373 74.872V78.328C92.2373 79.976 92.5573 81.256 93.1973 82.168C93.8533 83.064 94.8293 83.512 96.1253 83.512ZM94.5893 76.6C94.5893 76.184 94.7413 75.824 95.0453 75.52C95.3493 75.216 95.7093 75.064 96.1253 75.064C96.5413 75.064 96.9013 75.216 97.2053 75.52C97.5093 75.824 97.6613 76.184 97.6613 76.6C97.6613 77.016 97.5093 77.376 97.2053 77.68C96.9013 77.984 96.5413 78.136 96.1253 78.136C95.7093 78.136 95.3493 77.984 95.0453 77.68C94.7413 77.376 94.5893 77.016 94.5893 76.6ZM104.917 74.728C104.917 72.552 105.437 70.864 106.477 69.664C107.517 68.464 108.965 67.864 110.821 67.864C112.677 67.864 114.125 68.464 115.165 69.664C116.205 70.864 116.725 72.552 116.725 74.728V78.472C116.725 80.712 116.205 82.416 115.165 83.584C114.125 84.752 112.677 85.336 110.821 85.336C108.965 85.336 107.517 84.752 106.477 83.584C105.437 82.416 104.917 80.712 104.917 78.472V74.728ZM110.821 83.512C112.117 83.512 113.085 83.064 113.725 82.168C114.381 81.256 114.709 79.976 114.709 78.328V74.872C114.709 74.104 114.629 73.408 114.469 72.784C114.309 72.144 114.061 71.6 113.725 71.152C113.405 70.688 112.997 70.328 112.501 70.072C112.021 69.816 111.461 69.688 110.821 69.688C110.165 69.688 109.597 69.816 109.117 70.072C108.637 70.328 108.229 70.688 107.893 71.152C107.573 71.6 107.333 72.144 107.173 72.784C107.013 73.408 106.933 74.104 106.933 74.872V78.328C106.933 79.976 107.253 81.256 107.893 82.168C108.549 83.064 109.525 83.512 110.821 83.512ZM109.285 76.6C109.285 76.184 109.437 75.824 109.741 75.52C110.045 75.216 110.405 75.064 110.821 75.064C111.237 75.064 111.597 75.216 111.901 75.52C112.205 75.824 112.357 76.184 112.357 76.6C112.357 77.016 112.205 77.376 111.901 77.68C111.597 77.984 111.237 78.136 110.821 78.136C110.405 78.136 110.045 77.984 109.741 77.68C109.437 77.376 109.285 77.016 109.285 76.6ZM119.612 74.728C119.612 72.552 120.132 70.864 121.172 69.664C122.212 68.464 123.66 67.864 125.516 67.864C127.372 67.864 128.82 68.464 129.86 69.664C130.9 70.864 131.42 72.552 131.42 74.728V78.472C131.42 80.712 130.9 82.416 129.86 83.584C128.82 84.752 127.372 85.336 125.516 85.336C123.66 85.336 122.212 84.752 121.172 83.584C120.132 82.416 119.612 80.712 119.612 78.472V74.728ZM125.516 83.512C126.812 83.512 127.78 83.064 128.42 82.168C129.076 81.256 129.404 79.976 129.404 78.328V74.872C129.404 74.104 129.324 73.408 129.164 72.784C129.004 72.144 128.756 71.6 128.42 71.152C128.1 70.688 127.692 70.328 127.196 70.072C126.716 69.816 126.156 69.688 125.516 69.688C124.86 69.688 124.292 69.816 123.812 70.072C123.332 70.328 122.924 70.688 122.588 71.152C122.268 71.6 122.028 72.144 121.868 72.784C121.708 73.408 121.628 74.104 121.628 74.872V78.328C121.628 79.976 121.948 81.256 122.588 82.168C123.244 83.064 124.22 83.512 125.516 83.512ZM123.98 76.6C123.98 76.184 124.132 75.824 124.436 75.52C124.74 75.216 125.1 75.064 125.516 75.064C125.932 75.064 126.292 75.216 126.596 75.52C126.9 75.824 127.052 76.184 127.052 76.6C127.052 77.016 126.9 77.376 126.596 77.68C126.292 77.984 125.932 78.136 125.516 78.136C125.1 78.136 124.74 77.984 124.436 77.68C124.132 77.376 123.98 77.016 123.98 76.6ZM34 102.156C33.349 102.156 32.7812 102.003 32.2969 101.695C31.8125 101.383 31.4375 100.943 31.1719 100.375C30.9115 99.8021 30.7812 99.1354 30.7812 98.375C30.7812 97.6146 30.9115 96.9505 31.1719 96.3828C31.4375 95.8099 31.8125 95.3698 32.2969 95.0625C32.7812 94.75 33.349 94.5938 34 94.5938C34.5312 94.5938 35.013 94.724 35.4453 94.9844C35.8776 95.2396 36.224 95.6068 36.4844 96.0859C36.4479 95.888 36.4245 95.6901 36.4141 95.4922C36.4089 95.2943 36.4062 95.0469 36.4062 94.75V91.5781H37.6562V102H36.4453C36.4453 101.672 36.4479 101.401 36.4531 101.188C36.4635 100.974 36.4818 100.758 36.5078 100.539C36.2734 101.055 35.9349 101.453 35.4922 101.734C35.0547 102.016 34.5573 102.156 34 102.156ZM32.0703 98.375C32.0703 98.9375 32.1589 99.4245 32.3359 99.8359C32.5182 100.247 32.7734 100.562 33.1016 100.781C33.4297 100.995 33.8099 101.102 34.2422 101.102C34.6745 101.102 35.0521 100.995 35.375 100.781C35.7031 100.562 35.9557 100.247 36.1328 99.8359C36.3151 99.4245 36.4062 98.9375 36.4062 98.375C36.4062 97.8229 36.3177 97.3411 36.1406 96.9297C35.9635 96.5182 35.7109 96.2031 35.3828 95.9844C35.0599 95.7604 34.6797 95.6484 34.2422 95.6484C33.8047 95.6484 33.4219 95.7604 33.0938 95.9844C32.7656 96.2031 32.513 96.5182 32.3359 96.9297C32.1589 97.3359 32.0703 97.8177 32.0703 98.375ZM42.8125 102.156C42.1094 102.156 41.4974 102 40.9766 101.688C40.4609 101.375 40.0651 100.932 39.7891 100.359C39.513 99.7865 39.375 99.125 39.375 98.375C39.375 97.6146 39.513 96.9505 39.7891 96.3828C40.0703 95.8099 40.4688 95.3698 40.9844 95.0625C41.5 94.75 42.1094 94.5938 42.8125 94.5938C43.5156 94.5938 44.125 94.75 44.6406 95.0625C45.1615 95.3698 45.5599 95.8099 45.8359 96.3828C46.112 96.9505 46.25 97.6146 46.25 98.375C46.25 99.125 46.112 99.7865 45.8359 100.359C45.5599 100.932 45.1615 101.375 44.6406 101.688C44.125 102 43.5156 102.156 42.8125 102.156ZM40.6641 98.375C40.6641 98.9531 40.75 99.4505 40.9219 99.8672C41.0938 100.284 41.3411 100.602 41.6641 100.82C41.987 101.034 42.3698 101.141 42.8125 101.141C43.4896 101.141 44.0156 100.898 44.3906 100.414C44.7708 99.9297 44.9609 99.25 44.9609 98.375C44.9609 97.5104 44.7734 96.8333 44.3984 96.3438C44.0234 95.8542 43.4948 95.6094 42.8125 95.6094C42.1302 95.6094 41.6016 95.8542 41.2266 96.3438C40.8516 96.8333 40.6641 97.5104 40.6641 98.375ZM47.9688 94.75H49.1797C49.1797 95.0729 49.1745 95.3411 49.1641 95.5547C49.1589 95.763 49.1432 95.974 49.1172 96.1875C49.3359 95.7031 49.6536 95.3177 50.0703 95.0312C50.4922 94.7396 50.987 94.5938 51.5547 94.5938C52.0443 94.5938 52.4688 94.6953 52.8281 94.8984C53.1875 95.1016 53.4635 95.3906 53.6562 95.7656C53.849 96.1354 53.9453 96.5703 53.9453 97.0703V102H52.6953V97.3281C52.6953 96.7812 52.5703 96.3646 52.3203 96.0781C52.0755 95.7917 51.7161 95.6484 51.2422 95.6484C50.8828 95.6484 50.5469 95.7448 50.2344 95.9375C49.9271 96.125 49.6797 96.3932 49.4922 96.7422C49.3099 97.0859 49.2188 97.4818 49.2188 97.9297V102H47.9688V94.75ZM58.1875 102.156C57.6927 102.156 57.2604 102.07 56.8906 101.898C56.526 101.721 56.2448 101.474 56.0469 101.156C55.849 100.833 55.75 100.461 55.75 100.039C55.75 99.4193 55.9557 98.9479 56.3672 98.625C56.7786 98.3021 57.3698 98.0833 58.1406 97.9688L60.5 97.625V96.9844C60.5 96.5 60.3594 96.151 60.0781 95.9375C59.8021 95.7188 59.3932 95.6094 58.8516 95.6094C58.3203 95.6094 57.9193 95.7135 57.6484 95.9219C57.3828 96.125 57.2344 96.4609 57.2031 96.9297L56 96.875C56.1146 95.3542 57.0651 94.5938 58.8516 94.5938C59.8411 94.5938 60.5651 94.7995 61.0234 95.2109C61.4818 95.6172 61.7109 96.2188 61.7109 97.0156V100.742C61.7109 101.211 61.737 101.63 61.7891 102H60.5391C60.5234 101.812 60.5156 101.628 60.5156 101.445C60.5156 101.211 60.5312 100.977 60.5625 100.742C60.3125 101.206 59.9792 101.557 59.5625 101.797C59.1458 102.036 58.6875 102.156 58.1875 102.156ZM57 100C57 100.349 57.1224 100.628 57.3672 100.836C57.6172 101.039 57.9531 101.141 58.375 101.141C58.8021 101.141 59.1771 101.055 59.5 100.883C59.8229 100.706 60.0703 100.466 60.2422 100.164C60.4141 99.862 60.5 99.5208 60.5 99.1406V98.5156L58.25 98.8672C57.8281 98.9297 57.513 99.0495 57.3047 99.2266C57.1016 99.4036 57 99.6615 57 100ZM66.0156 102.078C65.3958 102.078 64.9193 101.927 64.5859 101.625C64.2526 101.318 64.0859 100.865 64.0859 100.266V95.7656H62.7734V94.75H64.0859V92.6406H65.3359V94.75H66.8828V95.7656H65.3359V100.047C65.3359 100.37 65.4089 100.602 65.5547 100.742C65.7005 100.878 65.9349 100.945 66.2578 100.945C66.4453 100.945 66.6536 100.927 66.8828 100.891V102C66.5859 102.052 66.2969 102.078 66.0156 102.078ZM71.2734 102.156C70.5911 102.156 69.9948 102 69.4844 101.688C68.974 101.37 68.5807 100.927 68.3047 100.359C68.0286 99.7865 67.8906 99.125 67.8906 98.375C67.8906 97.6146 68.0286 96.9505 68.3047 96.3828C68.5859 95.8099 68.9792 95.3698 69.4844 95.0625C69.9948 94.75 70.5859 94.5938 71.2578 94.5938C71.9297 94.5938 72.513 94.75 73.0078 95.0625C73.5026 95.3698 73.8802 95.8099 74.1406 96.3828C74.4062 96.9505 74.5391 97.6146 74.5391 98.375V98.5781H69.1484C69.1693 99.1094 69.2708 99.5677 69.4531 99.9531C69.6354 100.339 69.8828 100.633 70.1953 100.836C70.5078 101.039 70.8672 101.141 71.2734 101.141C71.7005 101.141 72.0755 101.026 72.3984 100.797C72.7266 100.562 72.9766 100.224 73.1484 99.7812L74.3438 100.125C74.0781 100.766 73.6797 101.266 73.1484 101.625C72.6172 101.979 71.9922 102.156 71.2734 102.156ZM73.2422 97.625C73.1484 96.9792 72.9297 96.4818 72.5859 96.1328C72.2474 95.7839 71.8047 95.6094 71.2578 95.6094C70.7109 95.6094 70.2552 95.7865 69.8906 96.1406C69.5312 96.4896 69.2995 96.9844 69.1953 97.625H73.2422ZM79.3281 102.156C78.6771 102.156 78.1094 102.003 77.625 101.695C77.1406 101.383 76.7656 100.943 76.5 100.375C76.2396 99.8021 76.1094 99.1354 76.1094 98.375C76.1094 97.6146 76.2396 96.9505 76.5 96.3828C76.7656 95.8099 77.1406 95.3698 77.625 95.0625C78.1094 94.75 78.6771 94.5938 79.3281 94.5938C79.8594 94.5938 80.3411 94.724 80.7734 94.9844C81.2057 95.2396 81.5521 95.6068 81.8125 96.0859C81.776 95.888 81.7526 95.6901 81.7422 95.4922C81.737 95.2943 81.7344 95.0469 81.7344 94.75V91.5781H82.9844V102H81.7734C81.7734 101.672 81.776 101.401 81.7812 101.188C81.7917 100.974 81.8099 100.758 81.8359 100.539C81.6016 101.055 81.263 101.453 80.8203 101.734C80.3828 102.016 79.8854 102.156 79.3281 102.156ZM77.3984 98.375C77.3984 98.9375 77.487 99.4245 77.6641 99.8359C77.8464 100.247 78.1016 100.562 78.4297 100.781C78.7578 100.995 79.138 101.102 79.5703 101.102C80.0026 101.102 80.3802 100.995 80.7031 100.781C81.0312 100.562 81.2839 100.247 81.4609 99.8359C81.6432 99.4245 81.7344 98.9375 81.7344 98.375C81.7344 97.8229 81.6458 97.3411 81.4688 96.9297C81.2917 96.5182 81.0391 96.2031 80.7109 95.9844C80.388 95.7604 80.0078 95.6484 79.5703 95.6484C79.1328 95.6484 78.75 95.7604 78.4219 95.9844C78.0938 96.2031 77.8411 96.5182 77.6641 96.9297C77.487 97.3359 77.3984 97.8177 77.3984 98.375ZM89.9375 102.078C89.3177 102.078 88.8411 101.927 88.5078 101.625C88.1745 101.318 88.0078 100.865 88.0078 100.266V95.7656H86.6953V94.75H88.0078V92.6406H89.2578V94.75H90.8047V95.7656H89.2578V100.047C89.2578 100.37 89.3307 100.602 89.4766 100.742C89.6224 100.878 89.8568 100.945 90.1797 100.945C90.3672 100.945 90.5755 100.927 90.8047 100.891V102C90.5078 102.052 90.2188 102.078 89.9375 102.078ZM95.25 102.156C94.5469 102.156 93.9349 102 93.4141 101.688C92.8984 101.375 92.5026 100.932 92.2266 100.359C91.9505 99.7865 91.8125 99.125 91.8125 98.375C91.8125 97.6146 91.9505 96.9505 92.2266 96.3828C92.5078 95.8099 92.9062 95.3698 93.4219 95.0625C93.9375 94.75 94.5469 94.5938 95.25 94.5938C95.9531 94.5938 96.5625 94.75 97.0781 95.0625C97.599 95.3698 97.9974 95.8099 98.2734 96.3828C98.5495 96.9505 98.6875 97.6146 98.6875 98.375C98.6875 99.125 98.5495 99.7865 98.2734 100.359C97.9974 100.932 97.599 101.375 97.0781 101.688C96.5625 102 95.9531 102.156 95.25 102.156ZM93.1016 98.375C93.1016 98.9531 93.1875 99.4505 93.3594 99.8672C93.5312 100.284 93.7786 100.602 94.1016 100.82C94.4245 101.034 94.8073 101.141 95.25 101.141C95.9271 101.141 96.4531 100.898 96.8281 100.414C97.2083 99.9297 97.3984 99.25 97.3984 98.375C97.3984 97.5104 97.2109 96.8333 96.8359 96.3438C96.4609 95.8542 95.9323 95.6094 95.25 95.6094C94.5677 95.6094 94.0391 95.8542 93.6641 96.3438C93.2891 96.8333 93.1016 97.5104 93.1016 98.375ZM103.062 91.5781H107.258C108.174 91.5781 108.956 91.7969 109.602 92.2344C110.247 92.6719 110.734 93.2839 111.062 94.0703C111.396 94.8568 111.562 95.7656 111.562 96.7969C111.562 97.8229 111.396 98.7292 111.062 99.5156C110.734 100.297 110.247 100.906 109.602 101.344C108.956 101.781 108.174 102 107.258 102H103.062V91.5781ZM107.258 100.828C107.909 100.828 108.453 100.661 108.891 100.328C109.333 99.9896 109.661 99.5182 109.875 98.9141C110.089 98.3099 110.195 97.6042 110.195 96.7969C110.195 95.9844 110.089 95.276 109.875 94.6719C109.661 94.0677 109.333 93.5964 108.891 93.2578C108.453 92.9193 107.909 92.75 107.258 92.75H104.359V100.828H107.258ZM116.602 102.156C115.919 102.156 115.323 102 114.812 101.688C114.302 101.37 113.909 100.927 113.633 100.359C113.357 99.7865 113.219 99.125 113.219 98.375C113.219 97.6146 113.357 96.9505 113.633 96.3828C113.914 95.8099 114.307 95.3698 114.812 95.0625C115.323 94.75 115.914 94.5938 116.586 94.5938C117.258 94.5938 117.841 94.75 118.336 95.0625C118.831 95.3698 119.208 95.8099 119.469 96.3828C119.734 96.9505 119.867 97.6146 119.867 98.375V98.5781H114.477C114.497 99.1094 114.599 99.5677 114.781 99.9531C114.964 100.339 115.211 100.633 115.523 100.836C115.836 101.039 116.195 101.141 116.602 101.141C117.029 101.141 117.404 101.026 117.727 100.797C118.055 100.562 118.305 100.224 118.477 99.7812L119.672 100.125C119.406 100.766 119.008 101.266 118.477 101.625C117.945 101.979 117.32 102.156 116.602 102.156ZM118.57 97.625C118.477 96.9792 118.258 96.4818 117.914 96.1328C117.576 95.7839 117.133 95.6094 116.586 95.6094C116.039 95.6094 115.583 95.7865 115.219 96.1406C114.859 96.4896 114.628 96.9844 114.523 97.625H118.57ZM125.297 102.156C124.568 102.156 123.919 102.026 123.352 101.766C122.789 101.5 122.339 101.128 122 100.648C121.667 100.169 121.466 99.6146 121.398 98.9844L122.688 98.7266C122.714 99.2214 122.846 99.6406 123.086 99.9844C123.326 100.328 123.638 100.589 124.023 100.766C124.409 100.938 124.833 101.023 125.297 101.023C125.76 101.023 126.169 100.948 126.523 100.797C126.883 100.641 127.161 100.414 127.359 100.117C127.562 99.8203 127.664 99.4609 127.664 99.0391C127.664 98.612 127.549 98.263 127.32 97.9922C127.091 97.7214 126.698 97.5234 126.141 97.3984L124.125 96.9453C123.307 96.763 122.727 96.4427 122.383 95.9844C122.039 95.5208 121.867 94.9792 121.867 94.3594C121.867 93.8125 122.01 93.3151 122.297 92.8672C122.583 92.4193 122.987 92.0677 123.508 91.8125C124.034 91.5521 124.638 91.4219 125.32 91.4219C125.956 91.4219 126.531 91.5365 127.047 91.7656C127.562 91.9896 127.984 92.3073 128.312 92.7188C128.641 93.1302 128.852 93.6068 128.945 94.1484L127.641 94.375C127.557 93.7865 127.31 93.3359 126.898 93.0234C126.492 92.7109 125.966 92.5547 125.32 92.5547C124.643 92.5547 124.12 92.7135 123.75 93.0312C123.38 93.3438 123.195 93.7682 123.195 94.3047C123.195 95.0703 123.651 95.5547 124.562 95.7578L126.68 96.2266C127.513 96.4141 128.109 96.7474 128.469 97.2266C128.833 97.7005 129.016 98.2656 129.016 98.9219C129.016 99.5729 128.867 100.143 128.57 100.633C128.279 101.117 127.852 101.492 127.289 101.758C126.732 102.023 126.068 102.156 125.297 102.156ZM133.969 102.156C133.292 102.156 132.693 102 132.172 101.688C131.656 101.37 131.255 100.927 130.969 100.359C130.688 99.7865 130.547 99.125 130.547 98.375C130.547 97.6198 130.688 96.9557 130.969 96.3828C131.255 95.8099 131.656 95.3698 132.172 95.0625C132.693 94.75 133.292 94.5938 133.969 94.5938C134.776 94.5938 135.456 94.7995 136.008 95.2109C136.565 95.6172 136.958 96.1927 137.188 96.9375L135.961 97.2969C135.82 96.7448 135.581 96.3255 135.242 96.0391C134.909 95.7526 134.484 95.6094 133.969 95.6094C133.542 95.6094 133.167 95.7214 132.844 95.9453C132.521 96.1641 132.271 96.4818 132.094 96.8984C131.922 97.3151 131.836 97.8073 131.836 98.375C131.836 98.9479 131.924 99.4427 132.102 99.8594C132.284 100.276 132.534 100.594 132.852 100.812C133.174 101.031 133.547 101.141 133.969 101.141C134.495 101.141 134.93 100.987 135.273 100.68C135.617 100.372 135.857 99.9245 135.992 99.3359L137.242 99.6328C137.023 100.43 136.633 101.049 136.07 101.492C135.508 101.935 134.807 102.156 133.969 102.156ZM138.844 91.5781H140.094V93.375H138.844V91.5781ZM138.844 94.75H140.094V102H138.844V94.75Z" fill="#333333"/>
<defs>
<radialGradient id="paint0_radial_511_119" cx="0" cy="0" r="1" gradientUnits="userSpaceOnUse" gradientTransform="translate(50.6375 27.0204) rotate(100.885) scale(125.869 147.805)">
<stop stop-color="#F2ECED"/>
<stop offset="1" stop-color="#F5EFEF"/>
</radialGradient>
</defs>
</svg>
