<svg width="138" height="144" viewBox="0 0 138 144" fill="none" xmlns="http://www.w3.org/2000/svg">
<path fill-rule="evenodd" clip-rule="evenodd" d="M138 103.8C129.141 75.8535 123.751 40.9033 127.252 13.6163C121.653 9.34076 116.31 4.25917 112.831 0C96.2977 4.47597 79.0596 5.38236 62.1776 2.66335C60.0845 4.09397 58.0141 5.56633 55.9663 7.08046C28.0444 27.6083 4.21452 54.3507 0.499278 76.1857C-4.81195 107.552 33.4655 104.034 57.6513 136.952C71.989 156.467 120.842 132.203 137.979 103.827" fill="url(#paint0_linear_511_116)"/>
<path d="M35.688 67.648V64.864L41.16 61.36V61.072H31.656V59.2H42.888V62.272L37.416 65.776V66.064H38.376C39.016 66.064 39.632 66.168 40.224 66.376C40.816 66.584 41.336 66.888 41.784 67.288C42.248 67.688 42.616 68.184 42.888 68.776C43.176 69.352 43.32 70.024 43.32 70.792V71.224C43.32 71.944 43.176 72.616 42.888 73.24C42.6 73.864 42.2 74.408 41.688 74.872C41.176 75.32 40.568 75.68 39.864 75.952C39.176 76.208 38.424 76.336 37.608 76.336C36.664 76.336 35.816 76.192 35.064 75.904C34.312 75.616 33.672 75.224 33.144 74.728C32.616 74.216 32.208 73.624 31.92 72.952C31.648 72.264 31.512 71.536 31.512 70.768V69.472H33.528V70.624C33.528 71.232 33.624 71.776 33.816 72.256C34.024 72.72 34.304 73.12 34.656 73.456C35.024 73.776 35.456 74.024 35.952 74.2C36.448 74.376 36.984 74.464 37.56 74.464C38.088 74.464 38.576 74.376 39.024 74.2C39.488 74.024 39.888 73.784 40.224 73.48C40.56 73.16 40.824 72.792 41.016 72.376C41.208 71.944 41.304 71.488 41.304 71.008V70.864C41.304 69.856 40.984 69.072 40.344 68.512C39.704 67.936 38.904 67.648 37.944 67.648H35.688ZM46.1353 65.728C46.1353 63.552 46.6553 61.864 47.6953 60.664C48.7353 59.464 50.1833 58.864 52.0393 58.864C53.8953 58.864 55.3433 59.464 56.3833 60.664C57.4233 61.864 57.9433 63.552 57.9433 65.728V69.472C57.9433 71.712 57.4233 73.416 56.3833 74.584C55.3433 75.752 53.8953 76.336 52.0393 76.336C50.1833 76.336 48.7353 75.752 47.6953 74.584C46.6553 73.416 46.1353 71.712 46.1353 69.472V65.728ZM52.0393 74.512C53.3353 74.512 54.3033 74.064 54.9433 73.168C55.5993 72.256 55.9273 70.976 55.9273 69.328V65.872C55.9273 65.104 55.8473 64.408 55.6873 63.784C55.5273 63.144 55.2793 62.6 54.9433 62.152C54.6233 61.688 54.2153 61.328 53.7193 61.072C53.2393 60.816 52.6793 60.688 52.0393 60.688C51.3833 60.688 50.8153 60.816 50.3353 61.072C49.8553 61.328 49.4473 61.688 49.1113 62.152C48.7913 62.6 48.5513 63.144 48.3913 63.784C48.2313 64.408 48.1513 65.104 48.1513 65.872V69.328C48.1513 70.976 48.4713 72.256 49.1113 73.168C49.7673 74.064 50.7433 74.512 52.0393 74.512ZM50.5033 67.6C50.5033 67.184 50.6553 66.824 50.9593 66.52C51.2633 66.216 51.6233 66.064 52.0393 66.064C52.4553 66.064 52.8153 66.216 53.1193 66.52C53.4233 66.824 53.5753 67.184 53.5753 67.6C53.5753 68.016 53.4233 68.376 53.1193 68.68C52.8153 68.984 52.4553 69.136 52.0393 69.136C51.6233 69.136 51.2633 68.984 50.9593 68.68C50.6553 68.376 50.5033 68.016 50.5033 67.6ZM60.8306 65.728C60.8306 63.552 61.3506 61.864 62.3906 60.664C63.4306 59.464 64.8786 58.864 66.7346 58.864C68.5906 58.864 70.0386 59.464 71.0786 60.664C72.1186 61.864 72.6386 63.552 72.6386 65.728V69.472C72.6386 71.712 72.1186 73.416 71.0786 74.584C70.0386 75.752 68.5906 76.336 66.7346 76.336C64.8786 76.336 63.4306 75.752 62.3906 74.584C61.3506 73.416 60.8306 71.712 60.8306 69.472V65.728ZM66.7346 74.512C68.0306 74.512 68.9986 74.064 69.6386 73.168C70.2946 72.256 70.6226 70.976 70.6226 69.328V65.872C70.6226 65.104 70.5426 64.408 70.3826 63.784C70.2226 63.144 69.9746 62.6 69.6386 62.152C69.3186 61.688 68.9106 61.328 68.4146 61.072C67.9346 60.816 67.3746 60.688 66.7346 60.688C66.0786 60.688 65.5106 60.816 65.0306 61.072C64.5506 61.328 64.1426 61.688 63.8066 62.152C63.4866 62.6 63.2466 63.144 63.0866 63.784C62.9266 64.408 62.8466 65.104 62.8466 65.872V69.328C62.8466 70.976 63.1666 72.256 63.8066 73.168C64.4626 74.064 65.4386 74.512 66.7346 74.512ZM65.1986 67.6C65.1986 67.184 65.3506 66.824 65.6546 66.52C65.9586 66.216 66.3186 66.064 66.7346 66.064C67.1506 66.064 67.5106 66.216 67.8146 66.52C68.1186 66.824 68.2706 67.184 68.2706 67.6C68.2706 68.016 68.1186 68.376 67.8146 68.68C67.5106 68.984 67.1506 69.136 66.7346 69.136C66.3186 69.136 65.9586 68.984 65.6546 68.68C65.3506 68.376 65.1986 68.016 65.1986 67.6ZM75.5259 65.728C75.5259 63.552 76.0459 61.864 77.0859 60.664C78.1259 59.464 79.5739 58.864 81.4299 58.864C83.2859 58.864 84.7339 59.464 85.7739 60.664C86.8139 61.864 87.3339 63.552 87.3339 65.728V69.472C87.3339 71.712 86.8139 73.416 85.7739 74.584C84.7339 75.752 83.2859 76.336 81.4299 76.336C79.5739 76.336 78.1259 75.752 77.0859 74.584C76.0459 73.416 75.5259 71.712 75.5259 69.472V65.728ZM81.4299 74.512C82.7259 74.512 83.6939 74.064 84.3339 73.168C84.9899 72.256 85.3179 70.976 85.3179 69.328V65.872C85.3179 65.104 85.2379 64.408 85.0779 63.784C84.9179 63.144 84.6699 62.6 84.3339 62.152C84.0139 61.688 83.6059 61.328 83.1099 61.072C82.6299 60.816 82.0699 60.688 81.4299 60.688C80.7739 60.688 80.2059 60.816 79.7259 61.072C79.2459 61.328 78.8379 61.688 78.5019 62.152C78.1819 62.6 77.9419 63.144 77.7819 63.784C77.6219 64.408 77.5419 65.104 77.5419 65.872V69.328C77.5419 70.976 77.8619 72.256 78.5019 73.168C79.1579 74.064 80.1339 74.512 81.4299 74.512ZM79.8939 67.6C79.8939 67.184 80.0459 66.824 80.3499 66.52C80.6539 66.216 81.0139 66.064 81.4299 66.064C81.8459 66.064 82.2059 66.216 82.5099 66.52C82.8139 66.824 82.9659 67.184 82.9659 67.6C82.9659 68.016 82.8139 68.376 82.5099 68.68C82.2059 68.984 81.8459 69.136 81.4299 69.136C81.0139 69.136 80.6539 68.984 80.3499 68.68C80.0459 68.376 79.8939 68.016 79.8939 67.6ZM91.1093 66.736H95.2613V62.584H96.9893V66.736H101.141V68.464H96.9893V72.616H95.2613V68.464H91.1093V66.736ZM31.5859 86.7656H30.2734V85.75H31.5859V84.4688C31.5859 83.8385 31.7448 83.3542 32.0625 83.0156C32.3802 82.6719 32.8125 82.5 33.3594 82.5C33.8281 82.5 34.2552 82.5911 34.6406 82.7734V83.9297C34.3229 83.7318 33.9896 83.6328 33.6406 83.6328C33.3594 83.6328 33.1536 83.7031 33.0234 83.8438C32.8984 83.9792 32.8359 84.2005 32.8359 84.5078V85.75H34.5312V86.7656H32.8359V93H31.5859V86.7656ZM38.6719 93.1562C37.9688 93.1562 37.3568 93 36.8359 92.6875C36.3203 92.375 35.9245 91.9323 35.6484 91.3594C35.3724 90.7865 35.2344 90.125 35.2344 89.375C35.2344 88.6146 35.3724 87.9505 35.6484 87.3828C35.9297 86.8099 36.3281 86.3698 36.8438 86.0625C37.3594 85.75 37.9688 85.5938 38.6719 85.5938C39.375 85.5938 39.9844 85.75 40.5 86.0625C41.0208 86.3698 41.4193 86.8099 41.6953 87.3828C41.9714 87.9505 42.1094 88.6146 42.1094 89.375C42.1094 90.125 41.9714 90.7865 41.6953 91.3594C41.4193 91.9323 41.0208 92.375 40.5 92.6875C39.9844 93 39.375 93.1562 38.6719 93.1562ZM36.5234 89.375C36.5234 89.9531 36.6094 90.4505 36.7812 90.8672C36.9531 91.2839 37.2005 91.6016 37.5234 91.8203C37.8464 92.0339 38.2292 92.1406 38.6719 92.1406C39.349 92.1406 39.875 91.8984 40.25 91.4141C40.6302 90.9297 40.8203 90.25 40.8203 89.375C40.8203 88.5104 40.6328 87.8333 40.2578 87.3438C39.8828 86.8542 39.3542 86.6094 38.6719 86.6094C37.9896 86.6094 37.4609 86.8542 37.0859 87.3438C36.7109 87.8333 36.5234 88.5104 36.5234 89.375ZM43.8281 82.5781H45.0781V93H43.8281V82.5781ZM46.9531 82.5781H48.2031V93H46.9531V82.5781ZM53.3594 93.1562C52.6562 93.1562 52.0443 93 51.5234 92.6875C51.0078 92.375 50.612 91.9323 50.3359 91.3594C50.0599 90.7865 49.9219 90.125 49.9219 89.375C49.9219 88.6146 50.0599 87.9505 50.3359 87.3828C50.6172 86.8099 51.0156 86.3698 51.5312 86.0625C52.0469 85.75 52.6562 85.5938 53.3594 85.5938C54.0625 85.5938 54.6719 85.75 55.1875 86.0625C55.7083 86.3698 56.1068 86.8099 56.3828 87.3828C56.6589 87.9505 56.7969 88.6146 56.7969 89.375C56.7969 90.125 56.6589 90.7865 56.3828 91.3594C56.1068 91.9323 55.7083 92.375 55.1875 92.6875C54.6719 93 54.0625 93.1562 53.3594 93.1562ZM51.2109 89.375C51.2109 89.9531 51.2969 90.4505 51.4688 90.8672C51.6406 91.2839 51.888 91.6016 52.2109 91.8203C52.5339 92.0339 52.9167 92.1406 53.3594 92.1406C54.0365 92.1406 54.5625 91.8984 54.9375 91.4141C55.3177 90.9297 55.5078 90.25 55.5078 89.375C55.5078 88.5104 55.3203 87.8333 54.9453 87.3438C54.5703 86.8542 54.0417 86.6094 53.3594 86.6094C52.6771 86.6094 52.1484 86.8542 51.7734 87.3438C51.3984 87.8333 51.2109 88.5104 51.2109 89.375ZM57.5312 85.75H58.8594L60.2578 90.3828C60.3568 90.7109 60.4349 91.0234 60.4922 91.3203C60.5599 90.9714 60.6354 90.6589 60.7188 90.3828L62.0625 85.75H63.1797L64.5234 90.3828C64.6224 90.7109 64.7005 91.0234 64.7578 91.3203C64.8255 90.9714 64.901 90.6589 64.9844 90.3828L66.3828 85.75H67.7109L65.2734 93H64.1328L62.8516 88.5234C62.763 88.2005 62.6875 87.888 62.625 87.5859C62.5417 87.9922 62.4661 88.3047 62.3984 88.5234L61.1094 93H59.9688L57.5312 85.75ZM71.8359 93.1562C71.1536 93.1562 70.5573 93 70.0469 92.6875C69.5365 92.3698 69.1432 91.9271 68.8672 91.3594C68.5911 90.7865 68.4531 90.125 68.4531 89.375C68.4531 88.6146 68.5911 87.9505 68.8672 87.3828C69.1484 86.8099 69.5417 86.3698 70.0469 86.0625C70.5573 85.75 71.1484 85.5938 71.8203 85.5938C72.4922 85.5938 73.0755 85.75 73.5703 86.0625C74.0651 86.3698 74.4427 86.8099 74.7031 87.3828C74.9688 87.9505 75.1016 88.6146 75.1016 89.375V89.5781H69.7109C69.7318 90.1094 69.8333 90.5677 70.0156 90.9531C70.1979 91.3385 70.4453 91.6328 70.7578 91.8359C71.0703 92.0391 71.4297 92.1406 71.8359 92.1406C72.263 92.1406 72.638 92.026 72.9609 91.7969C73.2891 91.5625 73.5391 91.224 73.7109 90.7812L74.9062 91.125C74.6406 91.7656 74.2422 92.2656 73.7109 92.625C73.1797 92.9792 72.5547 93.1562 71.8359 93.1562ZM73.8047 88.625C73.7109 87.9792 73.4922 87.4818 73.1484 87.1328C72.8099 86.7839 72.3672 86.6094 71.8203 86.6094C71.2734 86.6094 70.8177 86.7865 70.4531 87.1406C70.0938 87.4896 69.862 87.9844 69.7578 88.625H73.8047ZM76.8281 85.75H78.0391C78.0391 86.0625 78.0339 86.3255 78.0234 86.5391C78.0182 86.7526 78.0026 86.9688 77.9766 87.1875C78.2266 86.6562 78.5625 86.2578 78.9844 85.9922C79.4115 85.7266 79.8932 85.5938 80.4297 85.5938V86.875C79.6536 86.875 79.0677 87.0417 78.6719 87.375C78.276 87.7083 78.0781 88.1979 78.0781 88.8438V93H76.8281V85.75ZM84.5625 93.1562C83.9844 93.1562 83.4635 93.0547 83 92.8516C82.5365 92.6484 82.1693 92.362 81.8984 91.9922C81.6276 91.6224 81.4792 91.2005 81.4531 90.7266L82.6641 90.6641C82.6745 90.9453 82.7604 91.1979 82.9219 91.4219C83.0885 91.6458 83.3125 91.8229 83.5938 91.9531C83.875 92.0781 84.1979 92.1406 84.5625 92.1406C84.9062 92.1406 85.2005 92.0859 85.4453 91.9766C85.6953 91.8672 85.8854 91.7161 86.0156 91.5234C86.1458 91.3307 86.2109 91.1146 86.2109 90.875C86.2109 90.6042 86.1224 90.401 85.9453 90.2656C85.7734 90.1302 85.4922 90.0208 85.1016 89.9375L83.8125 89.6641C83.151 89.5234 82.6562 89.2995 82.3281 88.9922C82 88.6849 81.8359 88.2578 81.8359 87.7109C81.8359 87.2943 81.9505 86.9271 82.1797 86.6094C82.4089 86.2865 82.724 86.0365 83.125 85.8594C83.526 85.6823 83.9792 85.5938 84.4844 85.5938C84.9844 85.5938 85.4375 85.6771 85.8438 85.8438C86.25 86.0104 86.5781 86.2526 86.8281 86.5703C87.0833 86.8828 87.2344 87.2526 87.2812 87.6797L86.0781 87.8125C86.0417 87.4167 85.8828 87.1172 85.6016 86.9141C85.3255 86.7109 84.9531 86.6094 84.4844 86.6094C84.0469 86.6094 83.6979 86.7031 83.4375 86.8906C83.1771 87.0729 83.0469 87.3151 83.0469 87.6172C83.0469 87.888 83.1354 88.0911 83.3125 88.2266C83.4896 88.362 83.7604 88.4688 84.125 88.5469L85.6094 88.8672C86.2083 88.9974 86.6667 89.2109 86.9844 89.5078C87.3021 89.8047 87.4609 90.2266 87.4609 90.7734C87.4609 91.2266 87.3359 91.6354 87.0859 92C86.8411 92.3594 86.4974 92.6432 86.0547 92.8516C85.6172 93.0547 85.1198 93.1562 84.5625 93.1562Z" fill="#333333"/>
<defs>
<linearGradient id="paint0_linear_511_116" x1="133.656" y1="68.0203" x2="-33.031" y2="126.704" gradientUnits="userSpaceOnUse">
<stop stop-color="#EFDBE3"/>
<stop offset="0.42" stop-color="#EFDFDE"/>
</linearGradient>
</defs>
</svg>
