<svg width="198" height="133" viewBox="0 0 198 133" fill="none" xmlns="http://www.w3.org/2000/svg">
<mask id="path-1-inside-1_511_130" fill="white">
<path fill-rule="evenodd" clip-rule="evenodd" d="M155.973 132.979C144.844 113.874 145.267 97.8997 169.337 82.6634C177.647 77.2764 187.594 74.0315 198 73.3125C162.545 58.6245 125.085 1.21663 82.6471 0.033171C46.9814 -0.959233 44.3441 20.4391 12.9295 47.7117C-20.2221 82.6634 17.7127 102.57 44.6954 113.63C79.3817 104.371 118.349 113.63 155.973 133"/>
</mask>
<path fill-rule="evenodd" clip-rule="evenodd" d="M155.973 132.979C144.844 113.874 145.267 97.8997 169.337 82.6634C177.647 77.2764 187.594 74.0315 198 73.3125C162.545 58.6245 125.085 1.21663 82.6471 0.033171C46.9814 -0.959233 44.3441 20.4391 12.9295 47.7117C-20.2221 82.6634 17.7127 102.57 44.6954 113.63C79.3817 104.371 118.349 113.63 155.973 133" fill="url(#paint0_radial_511_130)"/>
<path d="M169.337 82.6634L169.871 83.5084L169.88 83.5025L169.337 82.6634ZM198 73.3125L198.069 74.3101L198.383 72.3887L198 73.3125ZM82.6471 0.033171L82.675 -0.96644L82.6749 -0.966442L82.6471 0.033171ZM12.9295 47.7117L12.274 46.9565L12.2374 46.9883L12.204 47.0235L12.9295 47.7117ZM44.6954 113.63L44.3161 114.555L44.6278 114.683L44.9533 114.596L44.6954 113.63ZM156.837 132.475C151.322 123.008 148.785 114.504 150.434 106.574C152.08 98.6602 157.952 91.0533 169.871 83.5083L168.802 81.8184C156.651 89.5098 150.277 97.508 148.476 106.167C146.679 114.809 149.495 123.845 155.109 133.482L156.837 132.475ZM169.88 83.5025C178.041 78.2127 187.823 75.0181 198.069 74.3101L197.931 72.3149C187.365 73.0449 177.254 76.34 168.793 81.8242L169.88 83.5025ZM198.383 72.3887C189.657 68.7739 180.759 62.5075 171.618 55.0574C162.462 47.5954 153.188 39.0555 143.592 30.8487C124.519 14.5369 104.293 -0.363592 82.675 -0.96644L82.6192 1.03278C103.439 1.61339 123.162 16.0086 142.292 32.3686C151.797 40.4977 161.189 49.1377 170.355 56.6077C179.535 64.0895 188.615 70.5071 197.617 74.2364L198.383 72.3887ZM82.6749 -0.966442C73.6564 -1.21738 66.663 -0.0542054 60.7547 2.3001C54.8451 4.65495 50.0843 8.17653 45.5036 12.5498C40.944 16.9028 36.5084 22.1565 31.3158 27.9493C26.1064 33.7608 20.0828 40.1773 12.274 46.9565L13.5851 48.4668C21.4836 41.6097 27.57 35.1243 32.805 29.2842C38.0568 23.4254 42.3999 18.278 46.8846 13.9964C51.3482 9.735 55.8975 6.38853 61.4951 4.15803C67.094 1.92699 73.8049 0.787523 82.6193 1.03278L82.6749 -0.966442ZM12.204 47.0235C3.82729 55.855 -0.169162 63.8503 -0.882528 71.1034C-1.59839 78.382 1.00764 84.7464 5.48584 90.2606C14.38 101.212 30.8448 109.033 44.3161 114.555L45.0747 112.704C31.5633 107.166 15.5693 99.5042 7.03834 88.9997C2.80396 83.7858 0.455819 77.9289 1.10787 71.2992C1.76242 64.6441 5.45597 57.0442 13.6551 48.3998L12.204 47.0235ZM44.9533 114.596C79.2998 105.428 117.998 114.574 155.515 133.889L156.431 132.111C118.7 112.685 79.4637 103.314 44.4375 112.663L44.9533 114.596Z" fill="#FBF7F7" mask="url(#path-1-inside-1_511_130)"/>
<path d="M62.124 40.365C62.124 39.325 61.804 38.493 61.164 37.869C60.524 37.229 59.636 36.909 58.5 36.909C57.956 36.909 57.452 37.005 56.988 37.197C56.54 37.389 56.148 37.669 55.812 38.037C55.492 38.389 55.236 38.813 55.044 39.309C54.868 39.805 54.78 40.349 54.78 40.941V43.437H55.068C55.452 42.733 55.996 42.181 56.7 41.781C57.42 41.381 58.22 41.181 59.1 41.181C59.868 41.181 60.58 41.309 61.236 41.565C61.892 41.805 62.452 42.165 62.916 42.645C63.396 43.125 63.764 43.709 64.02 44.397C64.292 45.069 64.428 45.837 64.428 46.701V46.989C64.428 47.821 64.276 48.581 63.972 49.269C63.684 49.957 63.276 50.549 62.748 51.045C62.236 51.541 61.62 51.925 60.9 52.197C60.196 52.469 59.428 52.605 58.596 52.605C57.764 52.605 56.988 52.469 56.268 52.197C55.564 51.925 54.948 51.549 54.42 51.069C53.908 50.573 53.5 49.989 53.196 49.317C52.908 48.629 52.764 47.877 52.764 47.061V40.941C52.764 40.061 52.916 39.261 53.22 38.541C53.524 37.821 53.94 37.213 54.468 36.717C54.996 36.205 55.604 35.813 56.292 35.541C56.996 35.269 57.748 35.133 58.548 35.133C59.348 35.133 60.092 35.253 60.78 35.493C61.468 35.733 62.06 36.085 62.556 36.549C63.052 36.997 63.436 37.549 63.708 38.205C63.996 38.845 64.14 39.565 64.14 40.365H62.124ZM58.596 50.829C59.172 50.829 59.692 50.741 60.156 50.565C60.636 50.373 61.044 50.109 61.38 49.773C61.716 49.437 61.972 49.037 62.148 48.573C62.324 48.109 62.412 47.597 62.412 47.037V46.749C62.412 46.189 62.316 45.677 62.124 45.213C61.932 44.749 61.668 44.349 61.332 44.013C60.996 43.677 60.588 43.421 60.108 43.245C59.644 43.053 59.14 42.957 58.596 42.957C58.052 42.957 57.548 43.053 57.084 43.245C56.62 43.437 56.212 43.701 55.86 44.037C55.524 44.373 55.26 44.765 55.068 45.213C54.876 45.661 54.78 46.141 54.78 46.653V47.109C54.78 47.637 54.868 48.133 55.044 48.597C55.22 49.045 55.476 49.437 55.812 49.773C56.148 50.109 56.548 50.373 57.012 50.565C57.492 50.741 58.02 50.829 58.596 50.829ZM67.3873 41.997C67.3873 39.821 67.9073 38.133 68.9473 36.933C69.9873 35.733 71.4353 35.133 73.2913 35.133C75.1473 35.133 76.5953 35.733 77.6353 36.933C78.6753 38.133 79.1953 39.821 79.1953 41.997V45.741C79.1953 47.981 78.6753 49.685 77.6353 50.853C76.5953 52.021 75.1473 52.605 73.2913 52.605C71.4353 52.605 69.9873 52.021 68.9473 50.853C67.9073 49.685 67.3873 47.981 67.3873 45.741V41.997ZM73.2913 50.781C74.5873 50.781 75.5553 50.333 76.1953 49.437C76.8513 48.525 77.1793 47.245 77.1793 45.597V42.141C77.1793 41.373 77.0993 40.677 76.9393 40.053C76.7793 39.413 76.5313 38.869 76.1953 38.421C75.8753 37.957 75.4673 37.597 74.9713 37.341C74.4913 37.085 73.9313 36.957 73.2913 36.957C72.6353 36.957 72.0673 37.085 71.5873 37.341C71.1073 37.597 70.6993 37.957 70.3633 38.421C70.0433 38.869 69.8033 39.413 69.6433 40.053C69.4833 40.677 69.4033 41.373 69.4033 42.141V45.597C69.4033 47.245 69.7233 48.525 70.3633 49.437C71.0193 50.333 71.9953 50.781 73.2913 50.781ZM71.7553 43.869C71.7553 43.453 71.9073 43.093 72.2113 42.789C72.5153 42.485 72.8753 42.333 73.2913 42.333C73.7073 42.333 74.0673 42.485 74.3713 42.789C74.6753 43.093 74.8273 43.453 74.8273 43.869C74.8273 44.285 74.6753 44.645 74.3713 44.949C74.0673 45.253 73.7073 45.405 73.2913 45.405C72.8753 45.405 72.5153 45.253 72.2113 44.949C71.9073 44.645 71.7553 44.285 71.7553 43.869ZM82.0826 41.997C82.0826 39.821 82.6026 38.133 83.6426 36.933C84.6826 35.733 86.1306 35.133 87.9866 35.133C89.8426 35.133 91.2906 35.733 92.3306 36.933C93.3706 38.133 93.8906 39.821 93.8906 41.997V45.741C93.8906 47.981 93.3706 49.685 92.3306 50.853C91.2906 52.021 89.8426 52.605 87.9866 52.605C86.1306 52.605 84.6826 52.021 83.6426 50.853C82.6026 49.685 82.0826 47.981 82.0826 45.741V41.997ZM87.9866 50.781C89.2826 50.781 90.2506 50.333 90.8906 49.437C91.5466 48.525 91.8746 47.245 91.8746 45.597V42.141C91.8746 41.373 91.7946 40.677 91.6346 40.053C91.4746 39.413 91.2266 38.869 90.8906 38.421C90.5706 37.957 90.1626 37.597 89.6666 37.341C89.1866 37.085 88.6266 36.957 87.9866 36.957C87.3306 36.957 86.7626 37.085 86.2826 37.341C85.8026 37.597 85.3946 37.957 85.0586 38.421C84.7386 38.869 84.4986 39.413 84.3386 40.053C84.1786 40.677 84.0986 41.373 84.0986 42.141V45.597C84.0986 47.245 84.4186 48.525 85.0586 49.437C85.7146 50.333 86.6906 50.781 87.9866 50.781ZM86.4506 43.869C86.4506 43.453 86.6026 43.093 86.9066 42.789C87.2106 42.485 87.5706 42.333 87.9866 42.333C88.4026 42.333 88.7626 42.485 89.0666 42.789C89.3706 43.093 89.5226 43.453 89.5226 43.869C89.5226 44.285 89.3706 44.645 89.0666 44.949C88.7626 45.253 88.4026 45.405 87.9866 45.405C87.5706 45.405 87.2106 45.253 86.9066 44.949C86.6026 44.645 86.4506 44.285 86.4506 43.869ZM97.6659 43.005H101.818V38.853H103.546V43.005H107.698V44.733H103.546V48.885H101.818V44.733H97.6659V43.005ZM52.1895 58.8472H53.4395V62.019C53.4395 62.519 53.4056 62.9982 53.3379 63.4565C53.5566 62.9722 53.8743 62.5868 54.291 62.3003C54.7129 62.0086 55.2077 61.8628 55.7754 61.8628C56.265 61.8628 56.6895 61.9644 57.0488 62.1675C57.4082 62.3706 57.6842 62.6597 57.877 63.0347C58.0697 63.4045 58.166 63.8394 58.166 64.3394V69.269H56.916V64.5972C56.916 64.0503 56.791 63.6336 56.541 63.3472C56.2962 63.0607 55.9368 62.9175 55.4629 62.9175C55.1035 62.9175 54.7676 63.0138 54.4551 63.2065C54.1478 63.394 53.9004 63.6623 53.7129 64.0112C53.5306 64.355 53.4395 64.7508 53.4395 65.1987V69.269H52.1895V58.8472ZM63.3301 69.4253C62.627 69.4253 62.015 69.269 61.4941 68.9565C60.9785 68.644 60.5827 68.2013 60.3066 67.6284C60.0306 67.0555 59.8926 66.394 59.8926 65.644C59.8926 64.8836 60.0306 64.2196 60.3066 63.6519C60.5879 63.0789 60.9863 62.6388 61.502 62.3315C62.0176 62.019 62.627 61.8628 63.3301 61.8628C64.0332 61.8628 64.6426 62.019 65.1582 62.3315C65.679 62.6388 66.0775 63.0789 66.3535 63.6519C66.6296 64.2196 66.7676 64.8836 66.7676 65.644C66.7676 66.394 66.6296 67.0555 66.3535 67.6284C66.0775 68.2013 65.679 68.644 65.1582 68.9565C64.6426 69.269 64.0332 69.4253 63.3301 69.4253ZM61.1816 65.644C61.1816 66.2222 61.2676 66.7196 61.4395 67.1362C61.6113 67.5529 61.8587 67.8706 62.1816 68.0894C62.5046 68.3029 62.8874 68.4097 63.3301 68.4097C64.0072 68.4097 64.5332 68.1675 64.9082 67.6831C65.2884 67.1987 65.4785 66.519 65.4785 65.644C65.4785 64.7795 65.291 64.1024 64.916 63.6128C64.541 63.1232 64.0124 62.8784 63.3301 62.8784C62.6478 62.8784 62.1191 63.1232 61.7441 63.6128C61.3691 64.1024 61.1816 64.7795 61.1816 65.644ZM70.8379 69.4253C70.3535 69.4253 69.9342 69.3237 69.5801 69.1206C69.2259 68.9175 68.9551 68.631 68.7676 68.2612C68.5801 67.8862 68.4863 67.4487 68.4863 66.9487V62.019H69.7363V66.6909C69.7363 67.243 69.8535 67.6623 70.0879 67.9487C70.3275 68.23 70.6816 68.3706 71.1504 68.3706C71.4993 68.3706 71.8249 68.2769 72.127 68.0894C72.4342 67.8966 72.679 67.6284 72.8613 67.2847C73.0436 66.9357 73.1348 66.5373 73.1348 66.0894V62.019H74.3848V69.269H73.1738C73.1738 68.9461 73.1764 68.6805 73.1816 68.4722C73.1921 68.2586 73.2103 68.0451 73.2363 67.8315C73.0176 68.3159 72.6999 68.7039 72.2832 68.9956C71.8665 69.2821 71.3848 69.4253 70.8379 69.4253ZM76.2676 62.019H77.4785C77.4785 62.3315 77.4733 62.5946 77.4629 62.8081C77.4577 63.0216 77.4421 63.2378 77.416 63.4565C77.666 62.9253 78.002 62.5269 78.4238 62.2612C78.8509 61.9956 79.3327 61.8628 79.8691 61.8628V63.144C79.0931 63.144 78.5072 63.3107 78.1113 63.644C77.7155 63.9774 77.5176 64.467 77.5176 65.1128V69.269H76.2676V62.019ZM84.002 69.4253C83.4238 69.4253 82.903 69.3237 82.4395 69.1206C81.9759 68.9175 81.6087 68.631 81.3379 68.2612C81.0671 67.8914 80.9186 67.4696 80.8926 66.9956L82.1035 66.9331C82.1139 67.2144 82.1999 67.467 82.3613 67.6909C82.528 67.9149 82.752 68.092 83.0332 68.2222C83.3145 68.3472 83.6374 68.4097 84.002 68.4097C84.3457 68.4097 84.64 68.355 84.8848 68.2456C85.1348 68.1362 85.3249 67.9852 85.4551 67.7925C85.5853 67.5998 85.6504 67.3836 85.6504 67.144C85.6504 66.8732 85.5618 66.6701 85.3848 66.5347C85.2129 66.3993 84.9316 66.2899 84.541 66.2065L83.252 65.9331C82.5905 65.7925 82.0957 65.5685 81.7676 65.2612C81.4395 64.9539 81.2754 64.5269 81.2754 63.98C81.2754 63.5633 81.39 63.1961 81.6191 62.8784C81.8483 62.5555 82.1634 62.3055 82.5645 62.1284C82.9655 61.9513 83.4186 61.8628 83.9238 61.8628C84.4238 61.8628 84.877 61.9461 85.2832 62.1128C85.6895 62.2795 86.0176 62.5216 86.2676 62.8394C86.5228 63.1519 86.6738 63.5216 86.7207 63.9487L85.5176 64.0815C85.4811 63.6857 85.3223 63.3862 85.041 63.1831C84.765 62.98 84.3926 62.8784 83.9238 62.8784C83.4863 62.8784 83.1374 62.9722 82.877 63.1597C82.6165 63.342 82.4863 63.5841 82.4863 63.8862C82.4863 64.1571 82.5749 64.3602 82.752 64.4956C82.929 64.631 83.1999 64.7378 83.5645 64.8159L85.0488 65.1362C85.6478 65.2664 86.1061 65.48 86.4238 65.7769C86.7415 66.0737 86.9004 66.4956 86.9004 67.0425C86.9004 67.4956 86.7754 67.9045 86.5254 68.269C86.2806 68.6284 85.9368 68.9123 85.4941 69.1206C85.0566 69.3237 84.5592 69.4253 84.002 69.4253ZM94.252 69.4253C93.5488 69.4253 92.9368 69.269 92.416 68.9565C91.9004 68.644 91.5046 68.2013 91.2285 67.6284C90.9525 67.0555 90.8145 66.394 90.8145 65.644C90.8145 64.8836 90.9525 64.2196 91.2285 63.6519C91.5098 63.0789 91.9082 62.6388 92.4238 62.3315C92.9395 62.019 93.5488 61.8628 94.252 61.8628C94.9551 61.8628 95.5645 62.019 96.0801 62.3315C96.6009 62.6388 96.9993 63.0789 97.2754 63.6519C97.5514 64.2196 97.6895 64.8836 97.6895 65.644C97.6895 66.394 97.5514 67.0555 97.2754 67.6284C96.9993 68.2013 96.6009 68.644 96.0801 68.9565C95.5645 69.269 94.9551 69.4253 94.252 69.4253ZM92.1035 65.644C92.1035 66.2222 92.1895 66.7196 92.3613 67.1362C92.5332 67.5529 92.7806 67.8706 93.1035 68.0894C93.4264 68.3029 93.8092 68.4097 94.252 68.4097C94.929 68.4097 95.4551 68.1675 95.8301 67.6831C96.2103 67.1987 96.4004 66.519 96.4004 65.644C96.4004 64.7795 96.2129 64.1024 95.8379 63.6128C95.4629 63.1232 94.9342 62.8784 94.252 62.8784C93.5697 62.8784 93.041 63.1232 92.666 63.6128C92.291 64.1024 92.1035 64.7795 92.1035 65.644ZM99.7598 63.0347H98.4473V62.019H99.7598V60.7378C99.7598 60.1076 99.9186 59.6232 100.236 59.2847C100.554 58.9409 100.986 58.769 101.533 58.769C102.002 58.769 102.429 58.8602 102.814 59.0425V60.1987C102.497 60.0008 102.163 59.9019 101.814 59.9019C101.533 59.9019 101.327 59.9722 101.197 60.1128C101.072 60.2482 101.01 60.4696 101.01 60.7769V62.019H102.705V63.0347H101.01V69.269H99.7598V63.0347ZM110.049 69.4253C109.346 69.4253 108.734 69.269 108.213 68.9565C107.697 68.644 107.301 68.2013 107.025 67.6284C106.749 67.0555 106.611 66.394 106.611 65.644C106.611 64.8836 106.749 64.2196 107.025 63.6519C107.307 63.0789 107.705 62.6388 108.221 62.3315C108.736 62.019 109.346 61.8628 110.049 61.8628C110.752 61.8628 111.361 62.019 111.877 62.3315C112.398 62.6388 112.796 63.0789 113.072 63.6519C113.348 64.2196 113.486 64.8836 113.486 65.644C113.486 66.394 113.348 67.0555 113.072 67.6284C112.796 68.2013 112.398 68.644 111.877 68.9565C111.361 69.269 110.752 69.4253 110.049 69.4253ZM107.9 65.644C107.9 66.2222 107.986 66.7196 108.158 67.1362C108.33 67.5529 108.577 67.8706 108.9 68.0894C109.223 68.3029 109.606 68.4097 110.049 68.4097C110.726 68.4097 111.252 68.1675 111.627 67.6831C112.007 67.1987 112.197 66.519 112.197 65.644C112.197 64.7795 112.01 64.1024 111.635 63.6128C111.26 63.1232 110.731 62.8784 110.049 62.8784C109.367 62.8784 108.838 63.1232 108.463 63.6128C108.088 64.1024 107.9 64.7795 107.9 65.644ZM115.205 62.019H116.416C116.416 62.342 116.411 62.6102 116.4 62.8237C116.395 63.0321 116.38 63.243 116.354 63.4565C116.572 62.9722 116.89 62.5868 117.307 62.3003C117.729 62.0086 118.223 61.8628 118.791 61.8628C119.281 61.8628 119.705 61.9644 120.064 62.1675C120.424 62.3706 120.7 62.6597 120.893 63.0347C121.085 63.4045 121.182 63.8394 121.182 64.3394V69.269H119.932V64.5972C119.932 64.0503 119.807 63.6336 119.557 63.3472C119.312 63.0607 118.952 62.9175 118.479 62.9175C118.119 62.9175 117.783 63.0138 117.471 63.2065C117.163 63.394 116.916 63.6623 116.729 64.0112C116.546 64.355 116.455 64.7508 116.455 65.1987V69.269H115.205V62.019ZM123.064 58.8472H124.314V69.269H123.064V58.8472ZM126.189 58.8472H127.439V60.644H126.189V58.8472ZM126.189 62.019H127.439V69.269H126.189V62.019ZM129.314 62.019H130.525C130.525 62.342 130.52 62.6102 130.51 62.8237C130.505 63.0321 130.489 63.243 130.463 63.4565C130.682 62.9722 130.999 62.5868 131.416 62.3003C131.838 62.0086 132.333 61.8628 132.9 61.8628C133.39 61.8628 133.814 61.9644 134.174 62.1675C134.533 62.3706 134.809 62.6597 135.002 63.0347C135.195 63.4045 135.291 63.8394 135.291 64.3394V69.269H134.041V64.5972C134.041 64.0503 133.916 63.6336 133.666 63.3472C133.421 63.0607 133.062 62.9175 132.588 62.9175C132.229 62.9175 131.893 63.0138 131.58 63.2065C131.273 63.394 131.025 63.6623 130.838 64.0112C130.656 64.355 130.564 64.7508 130.564 65.1987V69.269H129.314V62.019ZM140.4 69.4253C139.718 69.4253 139.122 69.269 138.611 68.9565C138.101 68.6388 137.708 68.1961 137.432 67.6284C137.156 67.0555 137.018 66.394 137.018 65.644C137.018 64.8836 137.156 64.2196 137.432 63.6519C137.713 63.0789 138.106 62.6388 138.611 62.3315C139.122 62.019 139.713 61.8628 140.385 61.8628C141.057 61.8628 141.64 62.019 142.135 62.3315C142.63 62.6388 143.007 63.0789 143.268 63.6519C143.533 64.2196 143.666 64.8836 143.666 65.644V65.8472H138.275C138.296 66.3784 138.398 66.8368 138.58 67.2222C138.762 67.6076 139.01 67.9019 139.322 68.105C139.635 68.3081 139.994 68.4097 140.4 68.4097C140.827 68.4097 141.202 68.2951 141.525 68.0659C141.854 67.8315 142.104 67.493 142.275 67.0503L143.471 67.394C143.205 68.0347 142.807 68.5347 142.275 68.894C141.744 69.2482 141.119 69.4253 140.4 69.4253ZM142.369 64.894C142.275 64.2482 142.057 63.7508 141.713 63.4019C141.374 63.0529 140.932 62.8784 140.385 62.8784C139.838 62.8784 139.382 63.0555 139.018 63.4097C138.658 63.7586 138.426 64.2534 138.322 64.894H142.369ZM55.4551 86.4253C54.778 86.4253 54.179 86.269 53.6582 85.9565C53.1426 85.6388 52.7415 85.1961 52.4551 84.6284C52.1738 84.0555 52.0332 83.394 52.0332 82.644C52.0332 81.8888 52.1738 81.2248 52.4551 80.6519C52.7415 80.0789 53.1426 79.6388 53.6582 79.3315C54.179 79.019 54.778 78.8628 55.4551 78.8628C56.2624 78.8628 56.9421 79.0685 57.4941 79.48C58.0514 79.8862 58.4447 80.4618 58.6738 81.2065L57.4473 81.5659C57.3066 81.0138 57.0671 80.5946 56.7285 80.3081C56.3952 80.0216 55.9707 79.8784 55.4551 79.8784C55.028 79.8784 54.653 79.9904 54.3301 80.2144C54.0072 80.4331 53.7572 80.7508 53.5801 81.1675C53.4082 81.5841 53.3223 82.0763 53.3223 82.644C53.3223 83.217 53.4108 83.7118 53.5879 84.1284C53.7702 84.5451 54.0202 84.8628 54.3379 85.0815C54.6608 85.3003 55.0332 85.4097 55.4551 85.4097C55.9811 85.4097 56.416 85.256 56.7598 84.9487C57.1035 84.6414 57.3431 84.1935 57.4785 83.605L58.7285 83.9019C58.5098 84.6987 58.1191 85.3185 57.5566 85.7612C56.9941 86.2039 56.2936 86.4253 55.4551 86.4253ZM60.3301 79.019H61.541C61.541 79.3315 61.5358 79.5946 61.5254 79.8081C61.5202 80.0216 61.5046 80.2378 61.4785 80.4565C61.7285 79.9253 62.0645 79.5269 62.4863 79.2612C62.9134 78.9956 63.3952 78.8628 63.9316 78.8628V80.144C63.1556 80.144 62.5697 80.3107 62.1738 80.644C61.778 80.9774 61.5801 81.467 61.5801 82.1128V86.269H60.3301V79.019ZM68.166 86.4253C67.4837 86.4253 66.8874 86.269 66.377 85.9565C65.8665 85.6388 65.4733 85.1961 65.1973 84.6284C64.9212 84.0555 64.7832 83.394 64.7832 82.644C64.7832 81.8836 64.9212 81.2196 65.1973 80.6519C65.4785 80.0789 65.8717 79.6388 66.377 79.3315C66.8874 79.019 67.4785 78.8628 68.1504 78.8628C68.8223 78.8628 69.4056 79.019 69.9004 79.3315C70.3952 79.6388 70.7728 80.0789 71.0332 80.6519C71.2988 81.2196 71.4316 81.8836 71.4316 82.644V82.8472H66.041C66.0618 83.3784 66.1634 83.8368 66.3457 84.2222C66.528 84.6076 66.7754 84.9019 67.0879 85.105C67.4004 85.3081 67.7598 85.4097 68.166 85.4097C68.5931 85.4097 68.9681 85.2951 69.291 85.0659C69.6191 84.8315 69.8691 84.493 70.041 84.0503L71.2363 84.394C70.9707 85.0347 70.5723 85.5347 70.041 85.894C69.5098 86.2482 68.8848 86.4253 68.166 86.4253ZM70.1348 81.894C70.041 81.2482 69.8223 80.7508 69.4785 80.4019C69.14 80.0529 68.6973 79.8784 68.1504 79.8784C67.6035 79.8784 67.1478 80.0555 66.7832 80.4097C66.4238 80.7586 66.1921 81.2534 66.0879 81.894H70.1348ZM75.3613 86.4253C74.8665 86.4253 74.4342 86.3394 74.0645 86.1675C73.6999 85.9904 73.4186 85.743 73.2207 85.4253C73.0228 85.1024 72.9238 84.73 72.9238 84.3081C72.9238 83.6883 73.1296 83.217 73.541 82.894C73.9525 82.5711 74.5436 82.3524 75.3145 82.2378L77.6738 81.894V81.2534C77.6738 80.769 77.5332 80.4201 77.252 80.2065C76.9759 79.9878 76.5671 79.8784 76.0254 79.8784C75.4941 79.8784 75.0931 79.9826 74.8223 80.1909C74.5566 80.394 74.4082 80.73 74.377 81.1987L73.1738 81.144C73.2884 79.6232 74.2389 78.8628 76.0254 78.8628C77.015 78.8628 77.7389 79.0685 78.1973 79.48C78.6556 79.8862 78.8848 80.4878 78.8848 81.2847V85.0112C78.8848 85.48 78.9108 85.8993 78.9629 86.269H77.7129C77.6973 86.0815 77.6895 85.8966 77.6895 85.7144C77.6895 85.48 77.7051 85.2456 77.7363 85.0112C77.4863 85.4748 77.153 85.8263 76.7363 86.0659C76.3197 86.3055 75.8613 86.4253 75.3613 86.4253ZM74.1738 84.269C74.1738 84.618 74.2962 84.8966 74.541 85.105C74.791 85.3081 75.127 85.4097 75.5488 85.4097C75.9759 85.4097 76.3509 85.3237 76.6738 85.1519C76.9967 84.9748 77.2441 84.7352 77.416 84.4331C77.5879 84.131 77.6738 83.7899 77.6738 83.4097V82.7847L75.4238 83.1362C75.002 83.1987 74.6868 83.3185 74.4785 83.4956C74.2754 83.6727 74.1738 83.9305 74.1738 84.269ZM83.1895 86.3472C82.5697 86.3472 82.0931 86.1961 81.7598 85.894C81.4264 85.5868 81.2598 85.1336 81.2598 84.5347V80.0347H79.9473V79.019H81.2598V76.9097H82.5098V79.019H84.0566V80.0347H82.5098V84.3159C82.5098 84.6388 82.5827 84.8706 82.7285 85.0112C82.8743 85.1466 83.1087 85.2144 83.4316 85.2144C83.6191 85.2144 83.8275 85.1961 84.0566 85.1597V86.269C83.7598 86.3211 83.4707 86.3472 83.1895 86.3472ZM85.627 75.8472H86.877V77.644H85.627V75.8472ZM85.627 79.019H86.877V86.269H85.627V79.019ZM92.0332 86.4253C91.3301 86.4253 90.7181 86.269 90.1973 85.9565C89.6816 85.644 89.2858 85.2013 89.0098 84.6284C88.7337 84.0555 88.5957 83.394 88.5957 82.644C88.5957 81.8836 88.7337 81.2196 89.0098 80.6519C89.291 80.0789 89.6895 79.6388 90.2051 79.3315C90.7207 79.019 91.3301 78.8628 92.0332 78.8628C92.7363 78.8628 93.3457 79.019 93.8613 79.3315C94.3822 79.6388 94.7806 80.0789 95.0566 80.6519C95.3327 81.2196 95.4707 81.8836 95.4707 82.644C95.4707 83.394 95.3327 84.0555 95.0566 84.6284C94.7806 85.2013 94.3822 85.644 93.8613 85.9565C93.3457 86.269 92.7363 86.4253 92.0332 86.4253ZM89.8848 82.644C89.8848 83.2222 89.9707 83.7196 90.1426 84.1362C90.3145 84.5529 90.5618 84.8706 90.8848 85.0894C91.2077 85.3029 91.5905 85.4097 92.0332 85.4097C92.7103 85.4097 93.2363 85.1675 93.6113 84.6831C93.9915 84.1987 94.1816 83.519 94.1816 82.644C94.1816 81.7795 93.9941 81.1024 93.6191 80.6128C93.2441 80.1232 92.7155 79.8784 92.0332 79.8784C91.3509 79.8784 90.8223 80.1232 90.4473 80.6128C90.0723 81.1024 89.8848 81.7795 89.8848 82.644ZM97.1895 79.019H98.4004C98.4004 79.342 98.3952 79.6102 98.3848 79.8237C98.3796 80.0321 98.3639 80.243 98.3379 80.4565C98.5566 79.9722 98.8743 79.5868 99.291 79.3003C99.7129 79.0086 100.208 78.8628 100.775 78.8628C101.265 78.8628 101.689 78.9644 102.049 79.1675C102.408 79.3706 102.684 79.6597 102.877 80.0347C103.07 80.4045 103.166 80.8394 103.166 81.3394V86.269H101.916V81.5972C101.916 81.0503 101.791 80.6336 101.541 80.3472C101.296 80.0607 100.937 79.9175 100.463 79.9175C100.104 79.9175 99.7676 80.0138 99.4551 80.2065C99.1478 80.394 98.9004 80.6623 98.7129 81.0112C98.5306 81.355 98.4395 81.7508 98.4395 82.1987V86.269H97.1895V79.019ZM107.549 79.019H108.76C108.76 79.618 108.739 80.105 108.697 80.48C108.932 79.9644 109.268 79.5659 109.705 79.2847C110.148 79.0034 110.648 78.8628 111.205 78.8628C111.856 78.8628 112.424 79.019 112.908 79.3315C113.393 79.6388 113.765 80.0789 114.025 80.6519C114.291 81.2196 114.424 81.8836 114.424 82.644C114.424 83.4045 114.291 84.0711 114.025 84.644C113.765 85.2118 113.393 85.6519 112.908 85.9644C112.424 86.2716 111.856 86.4253 111.205 86.4253C110.674 86.4253 110.192 86.2977 109.76 86.0425C109.327 85.7821 108.981 85.4123 108.721 84.9331C108.757 85.131 108.778 85.3289 108.783 85.5269C108.794 85.7248 108.799 85.9722 108.799 86.269V89.2378H107.549V79.019ZM108.799 82.644C108.799 83.1961 108.887 83.6779 109.064 84.0894C109.242 84.5008 109.492 84.8185 109.814 85.0425C110.143 85.2612 110.525 85.3706 110.963 85.3706C111.4 85.3706 111.783 85.2612 112.111 85.0425C112.439 84.8185 112.692 84.5034 112.869 84.0972C113.046 83.6857 113.135 83.2013 113.135 82.644C113.135 82.0815 113.044 81.5946 112.861 81.1831C112.684 80.7716 112.432 80.4591 112.104 80.2456C111.775 80.0269 111.395 79.9175 110.963 79.9175C110.531 79.9175 110.15 80.0269 109.822 80.2456C109.499 80.4591 109.247 80.7716 109.064 81.1831C108.887 81.5946 108.799 82.0815 108.799 82.644ZM118.346 86.4253C117.851 86.4253 117.419 86.3394 117.049 86.1675C116.684 85.9904 116.403 85.743 116.205 85.4253C116.007 85.1024 115.908 84.73 115.908 84.3081C115.908 83.6883 116.114 83.217 116.525 82.894C116.937 82.5711 117.528 82.3524 118.299 82.2378L120.658 81.894V81.2534C120.658 80.769 120.518 80.4201 120.236 80.2065C119.96 79.9878 119.551 79.8784 119.01 79.8784C118.479 79.8784 118.077 79.9826 117.807 80.1909C117.541 80.394 117.393 80.73 117.361 81.1987L116.158 81.144C116.273 79.6232 117.223 78.8628 119.01 78.8628C119.999 78.8628 120.723 79.0685 121.182 79.48C121.64 79.8862 121.869 80.4878 121.869 81.2847V85.0112C121.869 85.48 121.895 85.8993 121.947 86.269H120.697C120.682 86.0815 120.674 85.8966 120.674 85.7144C120.674 85.48 120.689 85.2456 120.721 85.0112C120.471 85.4748 120.137 85.8263 119.721 86.0659C119.304 86.3055 118.846 86.4253 118.346 86.4253ZM117.158 84.269C117.158 84.618 117.281 84.8966 117.525 85.105C117.775 85.3081 118.111 85.4097 118.533 85.4097C118.96 85.4097 119.335 85.3237 119.658 85.1519C119.981 84.9748 120.229 84.7352 120.4 84.4331C120.572 84.131 120.658 83.7899 120.658 83.4097V82.7847L118.408 83.1362C117.986 83.1987 117.671 83.3185 117.463 83.4956C117.26 83.6727 117.158 83.9305 117.158 84.269ZM123.752 75.8472H125.002V77.644H123.752V75.8472ZM123.752 79.019H125.002V86.269H123.752V79.019ZM129.939 86.4253C129.288 86.4253 128.721 86.2716 128.236 85.9644C127.752 85.6519 127.377 85.2118 127.111 84.644C126.851 84.0711 126.721 83.4045 126.721 82.644C126.721 81.8836 126.851 81.2196 127.111 80.6519C127.377 80.0789 127.752 79.6388 128.236 79.3315C128.721 79.019 129.288 78.8628 129.939 78.8628C130.471 78.8628 130.952 78.993 131.385 79.2534C131.817 79.5086 132.163 79.8758 132.424 80.355C132.387 80.1571 132.364 79.9591 132.354 79.7612C132.348 79.5633 132.346 79.3159 132.346 79.019V75.8472H133.596V86.269H132.385C132.385 85.9409 132.387 85.6701 132.393 85.4565C132.403 85.243 132.421 85.0269 132.447 84.8081C132.213 85.3237 131.874 85.7222 131.432 86.0034C130.994 86.2847 130.497 86.4253 129.939 86.4253ZM128.01 82.644C128.01 83.2065 128.098 83.6935 128.275 84.105C128.458 84.5164 128.713 84.8315 129.041 85.0503C129.369 85.2638 129.749 85.3706 130.182 85.3706C130.614 85.3706 130.992 85.2638 131.314 85.0503C131.643 84.8315 131.895 84.5164 132.072 84.105C132.255 83.6935 132.346 83.2065 132.346 82.644C132.346 82.092 132.257 81.6102 132.08 81.1987C131.903 80.7873 131.65 80.4722 131.322 80.2534C130.999 80.0295 130.619 79.9175 130.182 79.9175C129.744 79.9175 129.361 80.0295 129.033 80.2534C128.705 80.4722 128.452 80.7873 128.275 81.1987C128.098 81.605 128.01 82.0868 128.01 82.644Z" fill="#333333"/>
<defs>
<radialGradient id="paint0_radial_511_130" cx="0" cy="0" r="1" gradientUnits="userSpaceOnUse" gradientTransform="translate(57.955 21.9733) rotate(105.144) scale(104.132 166.282)">
<stop stop-color="#F2ECED"/>
<stop offset="1" stop-color="#F5EFEF"/>
</radialGradient>
</defs>
</svg>
