<svg width="168" height="143" viewBox="0 0 168 143" fill="none" xmlns="http://www.w3.org/2000/svg">
<path fill-rule="evenodd" clip-rule="evenodd" d="M74.9441 142.241C94.2408 126.509 117.94 111.994 139.603 104.989C144.022 90.6958 154.699 77.9677 167.406 69.7721C141.096 36.3258 76.5834 -5.50062 39.754 0.597306C8.46129 5.78344 25.158 40.8953 2.68041 74.6051C-11.1557 95.3602 31.8291 132.728 57.2107 138.905C63.0522 140.334 68.973 141.439 74.9441 142.215" fill="url(#paint0_radial_511_142)"/>
<path d="M53.872 67.08V58.2H64.384V60.072H55.84V66.072H56.128C56.288 65.752 56.496 65.448 56.752 65.16C57.008 64.856 57.304 64.592 57.64 64.368C57.992 64.144 58.384 63.968 58.816 63.84C59.248 63.696 59.728 63.624 60.256 63.624C61.024 63.624 61.728 63.752 62.368 64.008C63.024 64.264 63.584 64.624 64.048 65.088C64.512 65.552 64.872 66.112 65.128 66.768C65.4 67.424 65.536 68.152 65.536 68.952V69.384C65.536 70.184 65.408 70.944 65.152 71.664C64.896 72.368 64.52 73 64.024 73.56C63.528 74.104 62.912 74.536 62.176 74.856C61.44 75.176 60.592 75.336 59.632 75.336C58.656 75.336 57.792 75.192 57.04 74.904C56.288 74.616 55.656 74.216 55.144 73.704C54.632 73.192 54.24 72.592 53.968 71.904C53.712 71.2 53.584 70.44 53.584 69.624V68.952H55.6V69.48C55.6 70.808 55.968 71.808 56.704 72.48C57.456 73.136 58.432 73.464 59.632 73.464C60.272 73.464 60.832 73.352 61.312 73.128C61.808 72.888 62.216 72.576 62.536 72.192C62.872 71.792 63.12 71.336 63.28 70.824C63.44 70.296 63.52 69.752 63.52 69.192V69.048C63.52 68.552 63.432 68.088 63.256 67.656C63.096 67.224 62.864 66.848 62.56 66.528C62.272 66.208 61.912 65.96 61.48 65.784C61.064 65.592 60.608 65.496 60.112 65.496C59.776 65.496 59.464 65.544 59.176 65.64C58.904 65.736 58.664 65.864 58.456 66.024C58.248 66.168 58.072 66.336 57.928 66.528C57.8 66.72 57.712 66.904 57.664 67.08H53.872ZM68.1353 64.728C68.1353 62.552 68.6553 60.864 69.6953 59.664C70.7353 58.464 72.1833 57.864 74.0393 57.864C75.8953 57.864 77.3433 58.464 78.3833 59.664C79.4233 60.864 79.9433 62.552 79.9433 64.728V68.472C79.9433 70.712 79.4233 72.416 78.3833 73.584C77.3433 74.752 75.8953 75.336 74.0393 75.336C72.1833 75.336 70.7353 74.752 69.6953 73.584C68.6553 72.416 68.1353 70.712 68.1353 68.472V64.728ZM74.0393 73.512C75.3353 73.512 76.3033 73.064 76.9433 72.168C77.5993 71.256 77.9273 69.976 77.9273 68.328V64.872C77.9273 64.104 77.8473 63.408 77.6873 62.784C77.5273 62.144 77.2793 61.6 76.9433 61.152C76.6233 60.688 76.2153 60.328 75.7193 60.072C75.2393 59.816 74.6793 59.688 74.0393 59.688C73.3833 59.688 72.8153 59.816 72.3353 60.072C71.8553 60.328 71.4473 60.688 71.1113 61.152C70.7913 61.6 70.5513 62.144 70.3913 62.784C70.2313 63.408 70.1513 64.104 70.1513 64.872V68.328C70.1513 69.976 70.4713 71.256 71.1113 72.168C71.7673 73.064 72.7433 73.512 74.0393 73.512ZM72.5033 66.6C72.5033 66.184 72.6553 65.824 72.9593 65.52C73.2633 65.216 73.6233 65.064 74.0393 65.064C74.4553 65.064 74.8153 65.216 75.1193 65.52C75.4233 65.824 75.5753 66.184 75.5753 66.6C75.5753 67.016 75.4233 67.376 75.1193 67.68C74.8153 67.984 74.4553 68.136 74.0393 68.136C73.6233 68.136 73.2633 67.984 72.9593 67.68C72.6553 67.376 72.5033 67.016 72.5033 66.6ZM82.8306 64.728C82.8306 62.552 83.3506 60.864 84.3906 59.664C85.4306 58.464 86.8786 57.864 88.7346 57.864C90.5906 57.864 92.0386 58.464 93.0786 59.664C94.1186 60.864 94.6386 62.552 94.6386 64.728V68.472C94.6386 70.712 94.1186 72.416 93.0786 73.584C92.0386 74.752 90.5906 75.336 88.7346 75.336C86.8786 75.336 85.4306 74.752 84.3906 73.584C83.3506 72.416 82.8306 70.712 82.8306 68.472V64.728ZM88.7346 73.512C90.0306 73.512 90.9986 73.064 91.6386 72.168C92.2946 71.256 92.6226 69.976 92.6226 68.328V64.872C92.6226 64.104 92.5426 63.408 92.3826 62.784C92.2226 62.144 91.9746 61.6 91.6386 61.152C91.3186 60.688 90.9106 60.328 90.4146 60.072C89.9346 59.816 89.3746 59.688 88.7346 59.688C88.0786 59.688 87.5106 59.816 87.0306 60.072C86.5506 60.328 86.1426 60.688 85.8066 61.152C85.4866 61.6 85.2466 62.144 85.0866 62.784C84.9266 63.408 84.8466 64.104 84.8466 64.872V68.328C84.8466 69.976 85.1666 71.256 85.8066 72.168C86.4626 73.064 87.4386 73.512 88.7346 73.512ZM87.1986 66.6C87.1986 66.184 87.3506 65.824 87.6546 65.52C87.9586 65.216 88.3186 65.064 88.7346 65.064C89.1506 65.064 89.5106 65.216 89.8146 65.52C90.1186 65.824 90.2706 66.184 90.2706 66.6C90.2706 67.016 90.1186 67.376 89.8146 67.68C89.5106 67.984 89.1506 68.136 88.7346 68.136C88.3186 68.136 87.9586 67.984 87.6546 67.68C87.3506 67.376 87.1986 67.016 87.1986 66.6ZM98.4139 65.736H102.566V61.584H104.294V65.736H108.446V67.464H104.294V71.616H102.566V67.464H98.4139V65.736ZM52.9375 84.75H54.1484C54.1484 85.0729 54.1432 85.3411 54.1328 85.5547C54.1276 85.763 54.112 85.974 54.0859 86.1875C54.2266 85.7083 54.4687 85.3229 54.8125 85.0312C55.1562 84.7396 55.5964 84.5937 56.1328 84.5937C56.6953 84.5937 57.1562 84.724 57.5156 84.9844C57.875 85.2396 58.1276 85.6016 58.2734 86.0703C58.4505 85.6328 58.7135 85.2786 59.0625 85.0078C59.4167 84.7318 59.8464 84.5937 60.3516 84.5937C61.0911 84.5937 61.6536 84.8151 62.0391 85.2578C62.4297 85.6953 62.625 86.2995 62.625 87.0703V92H61.375V87.3281C61.375 86.7656 61.2734 86.3464 61.0703 86.0703C60.8672 85.7891 60.5365 85.6484 60.0781 85.6484C59.7344 85.6484 59.4375 85.7422 59.1875 85.9297C58.9375 86.1172 58.7448 86.3828 58.6094 86.7266C58.474 87.0703 58.4062 87.4714 58.4062 87.9297V92H57.1562V87.3281C57.1562 86.7656 57.0547 86.3464 56.8516 86.0703C56.6484 85.7891 56.3177 85.6484 55.8594 85.6484C55.5156 85.6484 55.2187 85.7422 54.9687 85.9297C54.7187 86.1172 54.526 86.3828 54.3906 86.7266C54.2552 87.0703 54.1875 87.4714 54.1875 87.9297V92H52.9375V84.75ZM67.7266 92.1562C67.0443 92.1562 66.4479 92 65.9375 91.6875C65.4271 91.3698 65.0339 90.9271 64.7578 90.3594C64.4818 89.7865 64.3437 89.125 64.3437 88.375C64.3437 87.6146 64.4818 86.9505 64.7578 86.3828C65.0391 85.8099 65.4323 85.3698 65.9375 85.0625C66.4479 84.75 67.0391 84.5937 67.7109 84.5937C68.3828 84.5937 68.9661 84.75 69.4609 85.0625C69.9557 85.3698 70.3333 85.8099 70.5937 86.3828C70.8594 86.9505 70.9922 87.6146 70.9922 88.375V88.5781H65.6016C65.6224 89.1094 65.724 89.5677 65.9062 89.9531C66.0885 90.3385 66.3359 90.6328 66.6484 90.8359C66.9609 91.0391 67.3203 91.1406 67.7266 91.1406C68.1536 91.1406 68.5286 91.026 68.8516 90.7969C69.1797 90.5625 69.4297 90.224 69.6016 89.7812L70.7969 90.125C70.5312 90.7656 70.1328 91.2656 69.6016 91.625C69.0703 91.9792 68.4453 92.1562 67.7266 92.1562ZM69.6953 87.625C69.6016 86.9792 69.3828 86.4818 69.0391 86.1328C68.7005 85.7839 68.2578 85.6094 67.7109 85.6094C67.1641 85.6094 66.7083 85.7865 66.3437 86.1406C65.9844 86.4896 65.7526 86.9844 65.6484 87.625H69.6953ZM72.7187 84.75H73.9297C73.9297 85.0729 73.9245 85.3411 73.9141 85.5547C73.9089 85.763 73.8932 85.974 73.8672 86.1875C74.0078 85.7083 74.25 85.3229 74.5937 85.0312C74.9375 84.7396 75.3776 84.5937 75.9141 84.5937C76.4766 84.5937 76.9375 84.724 77.2969 84.9844C77.6562 85.2396 77.9089 85.6016 78.0547 86.0703C78.2318 85.6328 78.4948 85.2786 78.8437 85.0078C79.1979 84.7318 79.6276 84.5937 80.1328 84.5937C80.8724 84.5937 81.4349 84.8151 81.8203 85.2578C82.2109 85.6953 82.4062 86.2995 82.4062 87.0703V92H81.1562V87.3281C81.1562 86.7656 81.0547 86.3464 80.8516 86.0703C80.6484 85.7891 80.3177 85.6484 79.8594 85.6484C79.5156 85.6484 79.2187 85.7422 78.9687 85.9297C78.7187 86.1172 78.526 86.3828 78.3906 86.7266C78.2552 87.0703 78.1875 87.4714 78.1875 87.9297V92H76.9375V87.3281C76.9375 86.7656 76.8359 86.3464 76.6328 86.0703C76.4297 85.7891 76.099 85.6484 75.6406 85.6484C75.2969 85.6484 75 85.7422 74.75 85.9297C74.5 86.1172 74.3073 86.3828 74.1719 86.7266C74.0365 87.0703 73.9687 87.4714 73.9687 87.9297V92H72.7187V84.75ZM87.9375 92.1562C87.3802 92.1562 86.8802 92.0156 86.4375 91.7344C86 91.4531 85.6641 91.0547 85.4297 90.5391C85.4557 90.7578 85.4714 90.974 85.4766 91.1875C85.487 91.401 85.4922 91.6719 85.4922 92H84.2812V81.5781H85.5312V84.75C85.5312 85.0469 85.526 85.2943 85.5156 85.4922C85.5104 85.6901 85.4896 85.888 85.4531 86.0859C85.7135 85.6068 86.0599 85.2396 86.4922 84.9844C86.9245 84.724 87.4062 84.5937 87.9375 84.5937C88.5885 84.5937 89.1562 84.75 89.6406 85.0625C90.125 85.3698 90.4974 85.8099 90.7578 86.3828C91.0234 86.9505 91.1562 87.6146 91.1562 88.375C91.1562 89.1354 91.0234 89.8021 90.7578 90.375C90.4974 90.9427 90.125 91.3828 89.6406 91.6953C89.1562 92.0026 88.5885 92.1562 87.9375 92.1562ZM85.5312 88.375C85.5312 88.9375 85.6198 89.4245 85.7969 89.8359C85.9792 90.2474 86.2318 90.5625 86.5547 90.7812C86.8828 90.9948 87.263 91.1016 87.6953 91.1016C88.1276 91.1016 88.5078 90.9948 88.8359 90.7812C89.1641 90.5625 89.4167 90.2474 89.5937 89.8359C89.776 89.4245 89.8672 88.9375 89.8672 88.375C89.8672 87.8177 89.7786 87.3359 89.6016 86.9297C89.4245 86.5182 89.1719 86.2031 88.8437 85.9844C88.5156 85.7604 88.1328 85.6484 87.6953 85.6484C87.2578 85.6484 86.875 85.7604 86.5469 85.9844C86.224 86.2031 85.974 86.5182 85.7969 86.9297C85.6198 87.3411 85.5312 87.8229 85.5312 88.375ZM96.1016 92.1562C95.4193 92.1562 94.8229 92 94.3125 91.6875C93.8021 91.3698 93.4089 90.9271 93.1328 90.3594C92.8568 89.7865 92.7187 89.125 92.7187 88.375C92.7187 87.6146 92.8568 86.9505 93.1328 86.3828C93.4141 85.8099 93.8073 85.3698 94.3125 85.0625C94.8229 84.75 95.4141 84.5937 96.0859 84.5937C96.7578 84.5937 97.3411 84.75 97.8359 85.0625C98.3307 85.3698 98.7083 85.8099 98.9687 86.3828C99.2344 86.9505 99.3672 87.6146 99.3672 88.375V88.5781H93.9766C93.9974 89.1094 94.099 89.5677 94.2812 89.9531C94.4635 90.3385 94.7109 90.6328 95.0234 90.8359C95.3359 91.0391 95.6953 91.1406 96.1016 91.1406C96.5286 91.1406 96.9036 91.026 97.2266 90.7969C97.5547 90.5625 97.8047 90.224 97.9766 89.7812L99.1719 90.125C98.9062 90.7656 98.5078 91.2656 97.9766 91.625C97.4453 91.9792 96.8203 92.1562 96.1016 92.1562ZM98.0703 87.625C97.9766 86.9792 97.7578 86.4818 97.4141 86.1328C97.0755 85.7839 96.6328 85.6094 96.0859 85.6094C95.5391 85.6094 95.0833 85.7865 94.7187 86.1406C94.3594 86.4896 94.1276 86.9844 94.0234 87.625H98.0703ZM101.094 84.75H102.305C102.305 85.0625 102.299 85.3255 102.289 85.5391C102.284 85.7526 102.268 85.9687 102.242 86.1875C102.492 85.6562 102.828 85.2578 103.25 84.9922C103.677 84.7266 104.159 84.5937 104.695 84.5937V85.875C103.919 85.875 103.333 86.0417 102.937 86.375C102.542 86.7083 102.344 87.1979 102.344 87.8437V92H101.094V84.75ZM108.828 92.1562C108.25 92.1562 107.729 92.0547 107.266 91.8516C106.802 91.6484 106.435 91.362 106.164 90.9922C105.893 90.6224 105.745 90.2005 105.719 89.7266L106.93 89.6641C106.94 89.9453 107.026 90.1979 107.187 90.4219C107.354 90.6458 107.578 90.8229 107.859 90.9531C108.141 91.0781 108.464 91.1406 108.828 91.1406C109.172 91.1406 109.466 91.0859 109.711 90.9766C109.961 90.8672 110.151 90.7161 110.281 90.5234C110.411 90.3307 110.477 90.1146 110.477 89.875C110.477 89.6042 110.388 89.401 110.211 89.2656C110.039 89.1302 109.758 89.0208 109.367 88.9375L108.078 88.6641C107.417 88.5234 106.922 88.2995 106.594 87.9922C106.266 87.6849 106.102 87.2578 106.102 86.7109C106.102 86.2943 106.216 85.9271 106.445 85.6094C106.674 85.2865 106.99 85.0365 107.391 84.8594C107.792 84.6823 108.245 84.5937 108.75 84.5937C109.25 84.5937 109.703 84.6771 110.109 84.8437C110.516 85.0104 110.844 85.2526 111.094 85.5703C111.349 85.8828 111.5 86.2526 111.547 86.6797L110.344 86.8125C110.307 86.4167 110.148 86.1172 109.867 85.9141C109.591 85.7109 109.219 85.6094 108.75 85.6094C108.312 85.6094 107.964 85.7031 107.703 85.8906C107.443 86.0729 107.312 86.3151 107.312 86.6172C107.312 86.888 107.401 87.0911 107.578 87.2266C107.755 87.362 108.026 87.4687 108.391 87.5469L109.875 87.8672C110.474 87.9974 110.932 88.2109 111.25 88.5078C111.568 88.8047 111.727 89.2266 111.727 89.7734C111.727 90.2266 111.602 90.6354 111.352 91C111.107 91.3594 110.763 91.6432 110.32 91.8516C109.883 92.0547 109.385 92.1562 108.828 92.1562Z" fill="#333333"/>
<defs>
<radialGradient id="paint0_radial_511_142" cx="0" cy="0" r="1" gradientUnits="userSpaceOnUse" gradientTransform="translate(49 23.5) rotate(102.077) scale(109.933 142.423)">
<stop offset="0.285" stop-color="#F2ECED"/>
<stop offset="1" stop-color="#E9D0D9"/>
</radialGradient>
</defs>
</svg>
