<svg width="110" height="109" viewBox="0 0 110 109" fill="none" xmlns="http://www.w3.org/2000/svg">
<path fill-rule="evenodd" clip-rule="evenodd" d="M82.9659 0C60.8954 5.19035 33.6932 7.13307 12.999 2.49238C9.32333 6.6883 5.05189 10.6031 1.51892 13.0955C3.78993 26.6031 3.27302 40.4326 0 53.733C0.951075 55.5009 1.93012 57.2548 2.93714 58.9947C16.7291 82.6806 35.5772 103.522 52.0798 107.948C75.7741 114.309 75.7658 83.4863 102.725 66.4089C118.711 56.2757 103.522 15.613 82.9534 0.00840004" fill="url(#paint0_linear_511_133)"/>
<path d="M44.056 56.128V58H32.68V55.12C32.68 54.352 32.808 53.688 33.064 53.128C33.32 52.552 33.68 52.064 34.144 51.664C34.624 51.248 35.2 50.904 35.872 50.632C36.544 50.36 37.304 50.128 38.152 49.936C39.576 49.616 40.6 49.16 41.224 48.568C41.864 47.976 42.184 47.248 42.184 46.384V46.24C42.184 45.808 42.112 45.384 41.968 44.968C41.824 44.552 41.6 44.176 41.296 43.84C40.992 43.504 40.6 43.24 40.12 43.048C39.656 42.84 39.096 42.736 38.44 42.736C37.208 42.736 36.248 43.112 35.56 43.864C34.888 44.616 34.552 45.616 34.552 46.864V47.92H32.536V46.72C32.536 45.952 32.664 45.216 32.92 44.512C33.176 43.808 33.552 43.184 34.048 42.64C34.544 42.096 35.16 41.664 35.896 41.344C36.632 41.024 37.48 40.864 38.44 40.864C39.416 40.864 40.264 41.016 40.984 41.32C41.704 41.608 42.304 42 42.784 42.496C43.264 42.976 43.616 43.528 43.84 44.152C44.08 44.76 44.2 45.384 44.2 46.024V46.456C44.2 47.736 43.8 48.832 43 49.744C42.2 50.64 40.92 51.28 39.16 51.664C37.624 52 36.496 52.448 35.776 53.008C35.056 53.552 34.696 54.352 34.696 55.408V56.128H44.056ZM52.7513 41.2H56.6633V52.96H59.2553V54.832H56.6633V58H54.6473V54.832H46.8713V52.048L52.7513 41.2ZM48.5993 52.672V52.96H54.6473V42.064H54.3593L48.5993 52.672ZM62.7186 48.736H66.8706V44.584H68.5986V48.736H72.7506V50.464H68.5986V54.616H66.8706V50.464H62.7186V48.736ZM31.9375 67.75H33.1484C33.1484 68.0729 33.1432 68.3411 33.1328 68.5547C33.1276 68.763 33.112 68.974 33.0859 69.1875C33.2266 68.7083 33.4688 68.3229 33.8125 68.0312C34.1562 67.7396 34.5964 67.5938 35.1328 67.5938C35.6953 67.5938 36.1562 67.724 36.5156 67.9844C36.875 68.2396 37.1276 68.6016 37.2734 69.0703C37.4505 68.6328 37.7135 68.2786 38.0625 68.0078C38.4167 67.7318 38.8464 67.5938 39.3516 67.5938C40.0911 67.5938 40.6536 67.8151 41.0391 68.2578C41.4297 68.6953 41.625 69.2995 41.625 70.0703V75H40.375V70.3281C40.375 69.7656 40.2734 69.3464 40.0703 69.0703C39.8672 68.7891 39.5365 68.6484 39.0781 68.6484C38.7344 68.6484 38.4375 68.7422 38.1875 68.9297C37.9375 69.1172 37.7448 69.3828 37.6094 69.7266C37.474 70.0703 37.4062 70.4714 37.4062 70.9297V75H36.1562V70.3281C36.1562 69.7656 36.0547 69.3464 35.8516 69.0703C35.6484 68.7891 35.3177 68.6484 34.8594 68.6484C34.5156 68.6484 34.2188 68.7422 33.9688 68.9297C33.7188 69.1172 33.526 69.3828 33.3906 69.7266C33.2552 70.0703 33.1875 70.4714 33.1875 70.9297V75H31.9375V67.75ZM46.7812 75.1562C46.0781 75.1562 45.4661 75 44.9453 74.6875C44.4297 74.375 44.0339 73.9323 43.7578 73.3594C43.4818 72.7865 43.3438 72.125 43.3438 71.375C43.3438 70.6146 43.4818 69.9505 43.7578 69.3828C44.0391 68.8099 44.4375 68.3698 44.9531 68.0625C45.4688 67.75 46.0781 67.5938 46.7812 67.5938C47.4844 67.5938 48.0938 67.75 48.6094 68.0625C49.1302 68.3698 49.5286 68.8099 49.8047 69.3828C50.0807 69.9505 50.2188 70.6146 50.2188 71.375C50.2188 72.125 50.0807 72.7865 49.8047 73.3594C49.5286 73.9323 49.1302 74.375 48.6094 74.6875C48.0938 75 47.4844 75.1562 46.7812 75.1562ZM44.6328 71.375C44.6328 71.9531 44.7188 72.4505 44.8906 72.8672C45.0625 73.2839 45.3099 73.6016 45.6328 73.8203C45.9557 74.0339 46.3385 74.1406 46.7812 74.1406C47.4583 74.1406 47.9844 73.8984 48.3594 73.4141C48.7396 72.9297 48.9297 72.25 48.9297 71.375C48.9297 70.5104 48.7422 69.8333 48.3672 69.3438C47.9922 68.8542 47.4635 68.6094 46.7812 68.6094C46.099 68.6094 45.5703 68.8542 45.1953 69.3438C44.8203 69.8333 44.6328 70.5104 44.6328 71.375ZM51.9375 67.75H53.1484C53.1484 68.0729 53.1432 68.3411 53.1328 68.5547C53.1276 68.763 53.112 68.974 53.0859 69.1875C53.3047 68.7031 53.6224 68.3177 54.0391 68.0312C54.4609 67.7396 54.9557 67.5938 55.5234 67.5938C56.013 67.5938 56.4375 67.6953 56.7969 67.8984C57.1562 68.1016 57.4323 68.3906 57.625 68.7656C57.8177 69.1354 57.9141 69.5703 57.9141 70.0703V75H56.6641V70.3281C56.6641 69.7812 56.5391 69.3646 56.2891 69.0781C56.0443 68.7917 55.6849 68.6484 55.2109 68.6484C54.8516 68.6484 54.5156 68.7448 54.2031 68.9375C53.8958 69.125 53.6484 69.3932 53.4609 69.7422C53.2786 70.0859 53.1875 70.4818 53.1875 70.9297V75H51.9375V67.75ZM62.3281 75.0781C61.7083 75.0781 61.2318 74.9271 60.8984 74.625C60.5651 74.3177 60.3984 73.8646 60.3984 73.2656V68.7656H59.0859V67.75H60.3984V65.6406H61.6484V67.75H63.1953V68.7656H61.6484V73.0469C61.6484 73.3698 61.7214 73.6016 61.8672 73.7422C62.013 73.8776 62.2474 73.9453 62.5703 73.9453C62.7578 73.9453 62.9661 73.9271 63.1953 73.8906V75C62.8984 75.0521 62.6094 75.0781 62.3281 75.0781ZM64.7656 64.5781H66.0156V67.75C66.0156 68.25 65.9818 68.7292 65.9141 69.1875C66.1328 68.7031 66.4505 68.3177 66.8672 68.0312C67.2891 67.7396 67.7839 67.5938 68.3516 67.5938C68.8411 67.5938 69.2656 67.6953 69.625 67.8984C69.9844 68.1016 70.2604 68.3906 70.4531 68.7656C70.6458 69.1354 70.7422 69.5703 70.7422 70.0703V75H69.4922V70.3281C69.4922 69.7812 69.3672 69.3646 69.1172 69.0781C68.8724 68.7917 68.513 68.6484 68.0391 68.6484C67.6797 68.6484 67.3438 68.7448 67.0312 68.9375C66.724 69.125 66.4766 69.3932 66.2891 69.7422C66.1068 70.0859 66.0156 70.4818 66.0156 70.9297V75H64.7656V64.5781ZM75.3438 75.1562C74.7656 75.1562 74.2448 75.0547 73.7812 74.8516C73.3177 74.6484 72.9505 74.362 72.6797 73.9922C72.4089 73.6224 72.2604 73.2005 72.2344 72.7266L73.4453 72.6641C73.4557 72.9453 73.5417 73.1979 73.7031 73.4219C73.8698 73.6458 74.0938 73.8229 74.375 73.9531C74.6562 74.0781 74.9792 74.1406 75.3438 74.1406C75.6875 74.1406 75.9818 74.0859 76.2266 73.9766C76.4766 73.8672 76.6667 73.7161 76.7969 73.5234C76.9271 73.3307 76.9922 73.1146 76.9922 72.875C76.9922 72.6042 76.9036 72.401 76.7266 72.2656C76.5547 72.1302 76.2734 72.0208 75.8828 71.9375L74.5938 71.6641C73.9323 71.5234 73.4375 71.2995 73.1094 70.9922C72.7812 70.6849 72.6172 70.2578 72.6172 69.7109C72.6172 69.2943 72.7318 68.9271 72.9609 68.6094C73.1901 68.2865 73.5052 68.0365 73.9062 67.8594C74.3073 67.6823 74.7604 67.5938 75.2656 67.5938C75.7656 67.5938 76.2188 67.6771 76.625 67.8438C77.0312 68.0104 77.3594 68.2526 77.6094 68.5703C77.8646 68.8828 78.0156 69.2526 78.0625 69.6797L76.8594 69.8125C76.8229 69.4167 76.6641 69.1172 76.3828 68.9141C76.1068 68.7109 75.7344 68.6094 75.2656 68.6094C74.8281 68.6094 74.4792 68.7031 74.2188 68.8906C73.9583 69.0729 73.8281 69.3151 73.8281 69.6172C73.8281 69.888 73.9167 70.0911 74.0938 70.2266C74.2708 70.362 74.5417 70.4688 74.9062 70.5469L76.3906 70.8672C76.9896 70.9974 77.4479 71.2109 77.7656 71.5078C78.0833 71.8047 78.2422 72.2266 78.2422 72.7734C78.2422 73.2266 78.1172 73.6354 77.8672 74C77.6224 74.3594 77.2786 74.6432 76.8359 74.8516C76.3984 75.0547 75.901 75.1562 75.3438 75.1562Z" fill="#333333"/>
<defs>
<linearGradient id="paint0_linear_511_133" x1="105.953" y1="51.3929" x2="-24.7315" y2="99.6656" gradientUnits="userSpaceOnUse">
<stop stop-color="#EFDBE3"/>
<stop offset="0.42" stop-color="#EFDFDE"/>
</linearGradient>
</defs>
</svg>
