<svg width="200" height="195" viewBox="0 0 200 195" fill="none" xmlns="http://www.w3.org/2000/svg">
<path fill-rule="evenodd" clip-rule="evenodd" d="M172.471 56.1456C175.303 64.4333 184.602 81.682 198.077 84.48C169.122 119.081 95.5003 167.649 60.7523 164.861C30.8387 162.451 41.3738 140.281 24.7552 108.931C14.9406 90.4073 51.5747 57.5271 85.2555 47.4313L114.255 50.931C135.755 50.931 154.868 52.9614 172.453 56.1613" fill="url(#paint0_radial_511_136)"/>
<path d="M61.9158 119.846L54.7513 107.772L54.5036 107.919L55.351 114.756L53.6378 115.772L53.5643 115.648L52.6676 107.976L56.0319 105.98L63.6495 118.818L67.7363 116.393L68.6915 118.003L58.7843 123.881L57.829 122.271L61.9158 119.846ZM67.5253 109.485L62.9939 101.849L72.0342 96.4845L72.9895 98.0944L65.6416 102.454L68.7034 107.614L68.9511 107.467C68.9254 107.111 68.9491 106.743 69.0223 106.365C69.0874 105.973 69.2072 105.594 69.3819 105.23C69.5703 104.858 69.8176 104.507 70.1238 104.176C70.4218 103.832 70.7979 103.525 71.252 103.256C71.9124 102.864 72.5832 102.615 73.2642 102.508C73.959 102.394 74.6243 102.417 75.2602 102.58C75.896 102.742 76.4913 103.04 77.0463 103.473C77.6149 103.899 78.1034 104.455 78.5116 105.143L78.7321 105.515C79.1403 106.203 79.418 106.922 79.5653 107.672C79.7044 108.408 79.7035 109.143 79.5627 109.878C79.4137 110.599 79.1044 111.285 78.6348 111.935C78.1651 112.586 77.5174 113.156 76.6918 113.646C75.8525 114.144 75.036 114.461 74.2423 114.598C73.4486 114.734 72.701 114.712 71.9994 114.533C71.2978 114.354 70.6545 114.038 70.0695 113.585C69.4901 113.11 68.9922 112.522 68.5758 111.82L68.2329 111.242L69.9666 110.214L70.2361 110.668C70.9137 111.81 71.7405 112.482 72.7164 112.684C73.6978 112.865 74.7046 112.649 75.7366 112.036C76.287 111.71 76.7114 111.328 77.0099 110.89C77.314 110.431 77.5057 109.954 77.5849 109.461C77.6698 108.945 77.6504 108.426 77.5267 107.905C77.3949 107.369 77.1861 106.86 76.9003 106.379L76.8268 106.255C76.5737 105.828 76.2613 105.474 75.8895 105.192C75.5314 104.902 75.14 104.697 74.7153 104.577C74.3043 104.449 73.8682 104.42 73.4068 104.489C72.9511 104.536 72.51 104.686 72.0834 104.939C71.7944 105.11 71.5506 105.311 71.3519 105.54C71.167 105.762 71.0259 105.994 70.9287 106.238C70.8233 106.468 70.7576 106.702 70.7318 106.941C70.7197 107.171 70.7379 107.375 70.7864 107.55L67.5253 109.485ZM79.8696 100.598L83.4403 98.4793L81.3216 94.9086L82.8077 94.0268L84.9264 97.5975L88.4972 95.4788L89.3789 96.9649L85.8082 99.0836L87.9269 102.654L86.4408 103.536L84.3221 99.9654L80.7514 102.084L79.8696 100.598ZM63.1004 132.657L64.1418 132.04C64.4475 132.555 64.6781 132.984 64.8336 133.328C64.772 132.765 64.8576 132.251 65.0904 131.786C65.3276 131.318 65.6858 130.942 66.1651 130.657C66.725 130.325 67.2929 130.17 67.869 130.191C68.4423 130.208 68.9872 130.397 69.5035 130.757C70.0216 131.109 70.4747 131.613 70.8627 132.267C71.2508 132.921 71.4768 133.562 71.5407 134.19C71.6064 134.811 71.5107 135.38 71.2536 135.896C70.9939 136.407 70.584 136.829 70.0242 137.161C69.5673 137.432 69.0878 137.568 68.5858 137.569C68.0812 137.566 67.5946 137.425 67.1261 137.146C67.2585 137.297 67.3774 137.457 67.4829 137.624C67.5928 137.789 67.7235 137.999 67.875 138.255L69.39 140.808L68.315 141.446L63.1004 132.657ZM66.0252 135.137C66.307 135.612 66.6289 135.981 66.9912 136.245C67.3535 136.508 67.7306 136.654 68.1226 136.681C68.5164 136.702 68.9014 136.601 69.2777 136.378C69.6539 136.154 69.9273 135.865 70.0979 135.509C70.2658 135.149 70.3222 134.749 70.2672 134.31C70.2096 133.866 70.0385 133.404 69.7542 132.925C69.4671 132.441 69.1402 132.068 68.7735 131.808C68.4112 131.544 68.0345 131.404 67.6434 131.388C67.2496 131.367 66.8668 131.467 66.495 131.688C66.1232 131.909 65.8521 132.197 65.6815 132.552C65.5128 132.901 65.455 133.298 65.5082 133.745C65.5658 134.189 65.7382 134.653 66.0252 135.137ZM70.4911 128.272L71.5325 127.654C71.692 127.923 71.8217 128.152 71.9217 128.341C72.0262 128.527 72.123 128.721 72.2123 128.922C72.1562 128.338 72.2418 127.824 72.469 127.38C72.7008 126.934 73.0473 126.574 73.5087 126.3L74.1625 127.402C73.4951 127.798 73.0762 128.24 72.9059 128.729C72.7356 129.217 72.8152 129.739 73.1448 130.295L75.2657 133.869L74.1907 134.507L70.4911 128.272ZM81.0564 130.615C80.4517 130.974 79.8456 131.152 79.2383 131.149C78.6354 131.143 78.069 130.964 77.5393 130.613C77.0095 130.261 76.5533 129.762 76.1706 129.117C75.7825 128.463 75.5624 127.822 75.5101 127.193C75.4596 126.556 75.5777 125.975 75.8643 125.447C76.1483 124.915 76.5926 124.47 77.1973 124.111C77.802 123.752 78.4058 123.576 79.0087 123.582C79.6134 123.58 80.1807 123.755 80.7104 124.107C81.2375 124.454 81.6951 124.955 82.0831 125.609C82.4658 126.254 82.6846 126.893 82.7396 127.527C82.7946 128.16 82.6778 128.744 82.3894 129.279C82.1054 129.811 81.6611 130.256 81.0564 130.615ZM77.2792 128.459C77.5742 128.957 77.9019 129.341 78.2623 129.611C78.6228 129.882 78.9977 130.029 79.387 130.052C79.7737 130.071 80.1574 129.967 80.5381 129.742C81.1204 129.396 81.4492 128.919 81.5245 128.311C81.6043 127.701 81.421 127.019 80.9745 126.267C80.5333 125.523 80.0265 125.037 79.4542 124.807C78.8819 124.577 78.3023 124.637 77.7156 124.985C77.1288 125.333 76.7991 125.813 76.7264 126.426C76.6537 127.038 76.838 127.716 77.2792 128.459ZM80.0928 118.887L81.1678 118.249L82.0848 119.794L81.0098 120.432L80.0928 118.887ZM85.0417 130.212C85.2314 130.154 85.4225 130.068 85.6151 129.954C85.8749 129.8 86.0303 129.623 86.0813 129.423C86.1368 129.221 86.0861 128.987 85.9293 128.723L81.7114 121.614L82.7864 120.977L87.1159 128.273C87.4162 128.779 87.4948 129.254 87.3515 129.696C87.2153 130.14 86.8986 130.51 86.4014 130.805C86.1596 130.948 85.8977 131.073 85.6158 131.18L85.0417 130.212ZM90.9531 124.743C90.3663 125.091 89.7737 125.261 89.1753 125.253C88.5742 125.24 88.0101 125.06 87.4831 124.712C86.9533 124.36 86.4971 123.862 86.1144 123.217C85.7263 122.563 85.5062 121.922 85.4539 121.292C85.4034 120.656 85.517 120.077 85.7946 119.555C86.0741 119.026 86.5028 118.59 87.0806 118.247C87.6584 117.904 88.2398 117.741 88.8248 117.757C89.4071 117.769 89.9565 117.955 90.4728 118.314C90.9909 118.667 91.444 119.17 91.832 119.824L91.9357 119.999L87.2997 122.75C87.5887 123.196 87.91 123.538 88.2634 123.777C88.6169 124.015 88.9798 124.142 89.3522 124.157C89.7246 124.173 90.0855 124.077 90.4348 123.869C90.8021 123.651 91.0662 123.361 91.2269 123C91.3895 122.631 91.4318 122.212 91.3537 121.743L92.5571 121.429C92.6555 122.116 92.568 122.749 92.2945 123.329C92.0184 123.905 91.5712 124.376 90.9531 124.743ZM90.334 119.841C89.9238 119.334 89.4819 119.017 89.0082 118.893C88.5389 118.765 88.0692 118.841 87.5989 119.12C87.1286 119.399 86.827 119.784 86.6942 120.275C86.5632 120.758 86.6163 121.302 86.8537 121.906L90.334 119.841ZM98.0548 120.529C97.4726 120.874 96.8777 121.046 96.2703 121.043C95.6648 121.033 95.094 120.856 94.5579 120.514C94.0237 120.165 93.5652 119.668 93.1825 119.023C92.7971 118.374 92.5792 117.731 92.5287 117.095C92.4827 116.456 92.603 115.872 92.8897 115.345C93.1781 114.811 93.6135 114.371 94.1958 114.025C94.8901 113.613 95.5796 113.443 96.2643 113.515C96.9509 113.58 97.5828 113.875 98.1599 114.398L97.2884 115.333C96.8858 114.93 96.4658 114.692 96.0285 114.618C95.5956 114.542 95.1575 114.635 94.714 114.898C94.3467 115.116 94.0814 115.404 93.918 115.761C93.7519 116.114 93.699 116.515 93.7593 116.964C93.8241 117.41 94.0014 117.877 94.2911 118.365C94.5834 118.858 94.9121 119.238 95.277 119.506C95.6464 119.772 96.0235 119.917 96.4084 119.943C96.7977 119.967 97.1738 119.871 97.5366 119.655C97.989 119.387 98.2846 119.033 98.4234 118.593C98.5622 118.154 98.5397 117.646 98.3558 117.071L99.5823 116.688C99.8008 117.485 99.7812 118.218 99.5233 118.885C99.2655 119.553 98.776 120.101 98.0548 120.529ZM104.317 116.722C103.784 117.038 103.297 117.152 102.856 117.062C102.413 116.968 102.038 116.663 101.733 116.148L99.4364 112.278L98.3077 112.948L97.7894 112.074L98.9182 111.405L97.8418 109.591L98.9168 108.953L99.9932 110.767L101.323 109.977L101.842 110.851L100.511 111.64L102.696 115.322C102.861 115.6 103.042 115.762 103.239 115.808C103.434 115.851 103.67 115.789 103.947 115.624C104.109 115.529 104.279 115.407 104.457 115.258L105.023 116.212C104.794 116.409 104.559 116.579 104.317 116.722ZM108.63 114.254C108.133 114.549 107.633 114.727 107.131 114.789C106.629 114.851 106.167 114.792 105.745 114.612C105.323 114.432 104.981 114.145 104.716 113.751L105.726 113.079C105.878 113.316 106.081 113.489 106.334 113.599C106.592 113.707 106.875 113.745 107.183 113.713C107.489 113.677 107.798 113.566 108.112 113.38C108.408 113.205 108.633 113.008 108.787 112.789C108.947 112.567 109.033 112.34 109.047 112.108C109.06 111.876 109.006 111.657 108.884 111.451C108.746 111.218 108.566 111.088 108.344 111.062C108.127 111.034 107.83 111.083 107.451 111.211L106.203 111.633C105.563 111.85 105.023 111.91 104.584 111.813C104.145 111.716 103.786 111.433 103.507 110.962C103.294 110.604 103.205 110.23 103.24 109.839C103.272 109.445 103.416 109.069 103.67 108.712C103.925 108.355 104.269 108.048 104.704 107.79C105.134 107.535 105.566 107.375 106.001 107.311C106.435 107.247 106.841 107.288 107.218 107.434C107.597 107.572 107.915 107.813 108.174 108.157L107.207 108.885C106.973 108.563 106.684 108.386 106.338 108.355C105.997 108.321 105.625 108.424 105.222 108.663C104.846 108.887 104.594 109.145 104.465 109.439C104.334 109.729 104.346 110.004 104.5 110.264C104.638 110.497 104.818 110.626 105.04 110.652C105.261 110.678 105.548 110.632 105.902 110.513L107.342 110.031C107.923 109.837 108.427 109.787 108.851 109.88C109.276 109.974 109.628 110.255 109.907 110.726C110.138 111.115 110.239 111.531 110.21 111.972C110.183 112.406 110.032 112.825 109.758 113.23C109.485 113.628 109.109 113.969 108.63 114.254ZM111.92 104.871L110.791 105.541L110.273 104.667L111.402 103.997L110.748 102.896C110.426 102.354 110.316 101.856 110.416 101.403C110.514 100.945 110.798 100.577 111.268 100.297C111.671 100.058 112.085 99.9187 112.51 99.8788L113.1 100.873C112.726 100.865 112.388 100.95 112.088 101.128C111.846 101.272 111.705 101.437 111.665 101.625C111.627 101.805 111.686 102.027 111.843 102.291L112.477 103.36L113.935 102.495L114.453 103.368L112.995 104.233L116.176 109.595L115.101 110.232L111.92 104.871ZM120.986 106.922C120.569 107.17 120.157 107.296 119.749 107.302C119.341 107.308 118.961 107.2 118.612 106.978C118.259 106.751 117.955 106.423 117.7 105.993L115.184 101.753L116.259 101.115L118.643 105.133C118.925 105.608 119.24 105.909 119.588 106.035C119.937 106.155 120.313 106.095 120.717 105.856C121.017 105.678 121.249 105.431 121.413 105.116C121.579 104.793 121.652 104.438 121.634 104.049C121.613 103.656 121.488 103.267 121.259 102.881L119.182 99.3809L120.257 98.7431L123.957 104.978L122.915 105.596C122.75 105.318 122.617 105.089 122.515 104.907C122.415 104.718 122.322 104.525 122.235 104.328C122.294 104.856 122.219 105.352 122.01 105.815C121.798 106.274 121.456 106.643 120.986 106.922ZM121.876 97.7823L122.918 97.1644C123.082 97.4421 123.215 97.6754 123.315 97.8644C123.417 98.0462 123.511 98.2356 123.597 98.4325C123.538 97.9043 123.615 97.4107 123.827 96.9518C124.041 96.4857 124.392 96.1077 124.88 95.8181C125.301 95.5682 125.718 95.439 126.131 95.4303C126.544 95.4216 126.929 95.5293 127.286 95.7535C127.64 95.9731 127.945 96.298 128.2 96.728L130.716 100.968L129.641 101.605L127.257 97.5876C126.978 97.1173 126.657 96.8227 126.296 96.7039C125.94 96.5825 125.557 96.6427 125.15 96.8846C124.841 97.0679 124.601 97.3222 124.431 97.6474C124.262 97.9655 124.186 98.3224 124.203 98.7182C124.222 99.1068 124.345 99.4938 124.574 99.879L126.651 103.379L125.576 104.017L121.876 97.7823ZM135.048 98.5784C134.488 98.9106 133.922 99.0681 133.348 99.051C132.772 99.0295 132.225 98.8423 131.707 98.4896C131.191 98.1298 130.739 97.6229 130.351 96.969C129.963 96.315 129.736 95.6775 129.67 95.0564C129.606 94.4281 129.704 93.8583 129.964 93.3468C130.221 92.8309 130.629 92.4068 131.189 92.0746C131.646 91.8035 132.127 91.6696 132.632 91.673C133.134 91.6719 133.619 91.8109 134.087 92.0901C133.955 91.9385 133.834 91.7803 133.724 91.6154C133.618 91.4478 133.49 91.2364 133.338 90.9811L131.72 88.2533L132.795 87.6154L138.113 96.5782L137.072 97.1962C136.904 96.914 136.768 96.6797 136.664 96.4934C136.564 96.3045 136.469 96.1093 136.38 95.9079C136.441 96.4709 136.354 96.9863 136.116 97.4541C135.884 97.9192 135.528 98.294 135.048 98.5784ZM131.459 96.3112C131.746 96.7949 132.071 97.1686 132.433 97.432C132.8 97.6929 133.18 97.8336 133.574 97.8543C133.965 97.8705 134.347 97.7683 134.718 97.5477C135.09 97.3271 135.36 97.0426 135.529 96.6942C135.7 96.3386 135.756 95.9388 135.699 95.4945C135.645 95.0477 135.475 94.5823 135.188 94.0986C134.907 93.6238 134.585 93.2547 134.222 92.9912C133.86 92.7277 133.482 92.5856 133.088 92.5649C132.696 92.5371 132.312 92.6348 131.936 92.858C131.56 93.0813 131.287 93.3729 131.12 93.733C130.949 94.0886 130.893 94.4884 130.95 94.9327C131.005 95.3724 131.175 95.8319 131.459 96.3112ZM142.58 94.1093C141.993 94.4575 141.401 94.6274 140.802 94.6192C140.201 94.6064 139.637 94.4263 139.11 94.0789C138.58 93.7271 138.124 93.2287 137.741 92.5837C137.353 91.9297 137.133 91.2882 137.081 90.6591C137.03 90.0229 137.144 89.4437 137.422 88.9216C137.701 88.3924 138.13 87.9564 138.708 87.6135C139.285 87.2707 139.867 87.1074 140.452 87.1237C141.034 87.1354 141.583 87.3212 142.1 87.6811C142.618 88.0338 143.071 88.5371 143.459 89.191L143.563 89.3657L138.927 92.1165C139.216 92.5628 139.537 92.9051 139.89 93.1435C140.244 93.382 140.607 93.5088 140.979 93.524C141.352 93.5392 141.712 93.4432 142.062 93.2359C142.429 93.018 142.693 92.7281 142.854 92.3662C143.017 91.9972 143.059 91.5785 142.981 91.11L144.184 90.7957C144.283 91.4822 144.195 92.1155 143.922 92.6957C143.645 93.2713 143.198 93.7426 142.58 94.1093ZM141.961 89.2078C141.551 88.7002 141.109 88.3841 140.635 88.2594C140.166 88.1321 139.696 88.2079 139.226 88.487C138.756 88.766 138.454 89.1509 138.321 89.6415C138.19 90.125 138.243 90.6688 138.481 91.2729L141.961 89.2078ZM149.507 89.9991C148.947 90.3313 148.381 90.4889 147.807 90.4718C147.231 90.4502 146.684 90.2631 146.166 89.9104C145.65 89.5506 145.198 89.0437 144.809 88.3897C144.421 87.7358 144.195 87.0982 144.129 86.4771C144.065 85.8488 144.163 85.279 144.423 84.7676C144.68 84.2516 145.088 83.8276 145.648 83.4953C146.105 83.2243 146.586 83.0904 147.09 83.0938C147.592 83.0926 148.078 83.2317 148.546 83.5109C148.414 83.3593 148.293 83.201 148.183 83.0361C148.077 82.8686 147.949 82.6571 147.797 82.4018L146.179 79.674L147.254 79.0361L152.572 87.999L151.53 88.6169C151.363 88.3347 151.227 88.1005 151.123 87.9142C151.023 87.7252 150.928 87.53 150.839 87.3286C150.9 87.8916 150.812 88.4071 150.575 88.8748C150.342 89.34 149.986 89.7147 149.507 89.9991ZM145.918 87.7319C146.205 88.2157 146.53 88.5893 146.892 88.8528C147.259 89.1136 147.639 89.2544 148.033 89.2751C148.424 89.2913 148.805 89.1891 149.177 88.9685C149.549 88.7479 149.819 88.4634 149.988 88.115C150.159 87.7594 150.215 87.3595 150.157 86.9153C150.104 86.4684 149.934 86.0031 149.647 85.5193C149.365 85.0445 149.043 84.6754 148.681 84.4119C148.319 84.1484 147.941 84.0063 147.547 83.9856C147.155 83.9578 146.771 84.0555 146.395 84.2788C146.018 84.502 145.746 84.7937 145.578 85.1537C145.408 85.5093 145.351 85.9092 145.409 86.3534C145.464 86.7931 145.634 87.2527 145.918 87.7319Z" fill="#333333"/>
<defs>
<radialGradient id="paint0_radial_511_136" cx="0" cy="0" r="1" gradientUnits="userSpaceOnUse" gradientTransform="translate(99.8243 46.1092) rotate(33.8833) scale(89.4965 138.64)">
<stop offset="0.285" stop-color="#F2ECED"/>
<stop offset="1" stop-color="#E9D0D9"/>
</radialGradient>
</defs>
</svg>
